<!DOCTYPE svg PUBLIC "-//W3C//DTD SVG 20010904//EN" "http://www.w3.org/TR/2001/REC-SVG-20010904/DTD/svg10.dtd">
<svg version="1.0" xmlns="http://www.w3.org/2000/svg" width="464px" height="499px" viewBox="0 0 4640 4990" preserveAspectRatio="xMidYMid meet">
<g id="layer101" fill="#fefeff" stroke="none">
 <path d="M2090 4696 c-506 -90 -910 -432 -1077 -911 -45 -130 -64 -234 -70 -391 -6 -161 3 -259 38 -398 21 -81 21 -97 -1 -71 -20 24 -77 19 -105 -10 -46 -45 -22 -134 40 -149 29 -7 79 15 88 39 13 31 34 13 71 -62 21 -43 62 -115 92 -160 l54 -83 -36 0 c-33 0 -74 -28 -85 -57 -2 -6 -75 -32 -163 -57 l-159 -45 -29 24 c-83 70 -193 -26 -132 -113 37 -53 120 -48 149 8 16 31 15 30 241 95 l92 26 28 -28 29 -28 -55 -127 c-30 -71 -61 -128 -68 -128 -7 0 -24 -11 -37 -25 -47 -46 -25 -119 41 -139 27 -8 74 9 94 34 14 18 21 19 115 8 55 -6 104 -14 109 -19 5 -4 -4 -41 -19 -83 -24 -66 -31 -76 -52 -76 -13 0 -35 -11 -48 -25 -47 -46 -25 -119 42 -139 35 -11 88 17 103 54 12 29 12 37 -3 62 -21 37 -21 36 3 101 l20 53 48 -1 c39 0 68 -10 149 -54 65 -36 105 -64 116 -83 34 -59 122 -57 153 4 28 53 0 110 -62 127 -29 7 -41 24 -152 223 l-32 58 89 -45 c49 -25 93 -45 98 -45 4 0 29 -15 55 -33 l48 -32 0 -185 0 -185 -241 -240 c-132 -132 -247 -252 -255 -267 -47 -89 46 -190 132 -145 16 9 117 104 224 211 l194 195 47 -52 c129 -143 317 -181 494 -99 59 28 165 121 165 146 0 6 95 -84 210 -199 l210 -210 45 0 c63 0 100 37 100 100 l0 45 -247 247 -248 248 0 85 0 85 18 -35 c34 -68 114 -74 147 -11 8 17 51 46 118 83 86 47 113 57 146 55 40 -2 40 -2 64 -69 14 -40 21 -72 16 -80 -14 -21 -10 -72 7 -96 37 -53 110 -47 140 10 28 55 -8 123 -70 130 -25 3 -31 11 -52 67 -32 90 -27 95 93 109 l98 10 19 -25 c41 -54 112 -49 142 9 21 40 10 82 -31 115 -25 21 -47 59 -84 147 l-51 118 26 25 27 25 151 -43 c130 -36 155 -46 181 -74 17 -18 39 -36 49 -39 32 -11 85 13 102 46 47 90 -75 175 -144 100 l-26 -29 -151 44 c-134 40 -153 48 -178 79 -24 28 -35 34 -67 34 l-39 0 55 81 c30 44 73 117 95 162 23 45 43 84 45 86 3 3 12 -5 20 -18 53 -76 179 -21 159 70 -10 44 -52 72 -100 66 l-40 -4 21 86 c133 528 -68 1095 -504 1424 -156 117 -319 194 -516 243 -85 22 -130 26 -281 30 -122 2 -204 -1 -255 -10z m436 -71 c227 -40 408 -120 590 -261 249 -193 417 -470 481 -791 25 -130 23 -357 -6 -491 -112 -529 -525 -933 -1051 -1028 -127 -23 -335 -23 -460 1 -349 65 -652 264 -851 557 -57 83 -144 268 -169 358 -129 469 -5 953 331 1289 188 188 445 322 700 365 115 19 326 20 435 1z m-1116 -2351 c0 -13 11 -35 24 -51 19 -22 32 -28 63 -27 l40 1 78 -141 c44 -77 87 -154 96 -171 15 -25 16 -33 5 -47 -12 -17 -20 -14 -102 30 l-88 48 -1 43 c-2 87 -97 123 -156 60 -29 -31 -30 -31 -97 -25 -109 11 -126 17 -150 47 l-23 29 57 130 c37 86 63 131 75 135 20 7 49 53 49 78 0 7 29 -16 65 -51 42 -42 65 -73 65 -88z m1930 111 c0 -16 12 -34 34 -52 27 -21 47 -55 86 -149 l52 -122 -22 -30 c-24 -32 -37 -36 -153 -48 -64 -6 -69 -5 -94 20 -54 54 -143 18 -143 -58 0 -33 -4 -36 -92 -85 -138 -77 -140 -67 -20 152 69 126 101 176 111 172 43 -17 111 40 111 92 0 17 106 133 122 133 4 0 8 -11 8 -25z m-363 -287 c-13 -24 -48 -87 -76 -140 -40 -73 -58 -98 -73 -98 -32 0 -59 -19 -73 -53 -13 -30 -14 -24 -15 83 l0 115 37 25 c36 25 200 108 216 109 5 1 -2 -18 -16 -41z"/>
 <path d="M1720 3679 l0 -210 43 3 42 3 3 83 3 82 89 0 90 0 0 -85 0 -85 40 0 40 0 0 210 0 210 -40 0 -39 0 -3 -87 -3 -88 -87 -3 -88 -3 0 91 0 90 -45 0 -45 0 0 -211z"/>
 <path d="M2244 3876 c-77 -34 -107 -125 -102 -306 l3 -95 42 -3 41 -3 4 140 c3 123 5 143 24 168 17 22 30 29 65 31 37 2 49 -1 69 -23 24 -25 25 -35 30 -168 l5 -142 43 -3 44 -3 -4 148 c-4 172 -17 212 -84 250 -45 26 -131 30 -180 9z"/>
 <path d="M2590 3680 l0 -210 125 0 c122 0 125 1 156 28 44 39 52 106 16 147 l-24 29 23 19 c13 10 29 36 36 58 10 35 9 45 -6 74 -28 51 -74 65 -211 65 l-115 0 0 -210z m220 127 c15 -8 26 -23 28 -39 5 -38 -29 -58 -100 -58 l-58 0 0 55 0 55 53 0 c28 0 63 -6 77 -13z m-2 -179 c7 -7 12 -21 12 -33 0 -34 -20 -45 -82 -45 l-58 0 0 45 0 45 58 0 c32 0 63 -5 70 -12z"/>
 <path d="M1655 3174 c-128 -66 -157 -255 -53 -351 76 -71 229 -67 282 8 21 31 21 34 -13 58 l-29 21 -30 -30 c-63 -63 -162 -26 -183 69 -7 29 -6 54 1 76 28 85 126 116 184 58 26 -26 27 -26 61 -10 19 9 35 20 35 25 0 13 -63 67 -93 80 -39 17 -126 15 -162 -4z"/>
 <path d="M1960 2979 l0 -210 43 3 42 3 3 167 2 167 103 3 102 3 3 38 3 37 -150 0 -151 0 0 -211z"/>
 <path d="M2394 3176 c-77 -34 -107 -125 -102 -306 l3 -95 42 -3 41 -3 4 140 c3 123 5 143 24 168 17 22 30 29 65 31 37 2 49 -1 69 -23 24 -25 25 -35 30 -168 l5 -142 43 -3 44 -3 -4 148 c-4 172 -17 212 -84 250 -45 26 -131 30 -180 9z"/>
 <path d="M2740 2980 l0 -210 125 0 c122 0 125 1 156 28 44 39 52 106 16 147 l-24 29 23 19 c13 10 29 36 36 58 10 35 9 45 -6 74 -28 51 -74 65 -211 65 l-115 0 0 -210z m220 127 c15 -8 26 -23 28 -39 5 -38 -29 -58 -100 -58 l-58 0 0 55 0 55 53 0 c28 0 63 -6 77 -13z m-2 -179 c7 -7 12 -21 12 -33 0 -34 -20 -45 -82 -45 l-58 0 0 45 0 45 58 0 c32 0 63 -5 70 -12z"/>
 <path d="M2230 1071 c-93 -29 -177 -101 -219 -190 -22 -48 -26 -69 -26 -151 0 -84 3 -101 28 -148 37 -71 86 -123 144 -154 180 -97 387 -27 477 162 27 57 31 76 30 146 0 71 -4 90 -32 147 -62 125 -176 198 -310 196 -37 0 -78 -4 -92 -8z"/>
 </g>

</svg>