<?xml version="1.0" standalone="yes"?>
<svg xmlns="http://www.w3.org/2000/svg" width="650" height="606">
<path style="fill:#000000; stroke:none;" d="M0 0L0 606L126 606C118.794 599.966 111.359 596.242 107.465 587C104.925 580.972 103.576 574.463 104.805 568C106.004 561.69 108.186 556 112.329 551.001C119.468 542.385 130.585 536.309 142 537.091C168.609 538.915 183.683 570.295 168.211 592C164.072 597.806 158.507 602.192 152 605C156.469 606.875 162.191 606 167 606L196 606L297 606L650 606L650 259C643.847 271.697 639.27 283.759 624 288.076C599.158 295.1 572.339 272.237 580.043 246C588.702 216.513 630.068 210.416 645.201 238C647.304 241.835 648.618 245.656 649 250C651.701 243.564 650 233.951 650 227L650 176L650 0L0 0z"/>
<path style="fill:#7030a0; stroke:none;" d="M321 1.43982C284.412 7.31897 281.601 63.2465 318 71.9599C322.582 73.0568 327.342 73.3087 332 72.5602C368.588 66.681 371.399 10.7535 335 2.0401C330.418 0.943176 325.658 0.691284 321 1.43982z"/>
<path style="fill:#550055; stroke:none;" d="M292 28L293 29L292 28M360 28L361 29L360 28M292 45L293 46L292 45M360 45L361 46L360 45z"/>
<path style="fill:#dac8ff; stroke:none;" d="M267 121C258.148 124.715 252.824 122.275 244 119.333C233.906 115.969 223.559 111.554 213 110C215.184 105.462 216.258 98.744 213.821 94.0154C209.564 85.7542 198.113 85.0677 192.434 92.1049C186.622 99.3058 192.704 106.537 192.567 114C192.402 122.961 188.152 132.081 187 141C182.494 141.465 178.352 143.064 175.742 147.043C170.528 154.994 175.733 166.446 185 167.782C195.734 169.33 203.806 157.688 198.821 148.015C196.803 144.1 193.013 142.192 189 141C190.923 131.676 193.78 122.448 195 113C198.248 114.371 201.432 115.338 205 114.603C208.534 113.876 211.241 111.799 215 112.481C230.003 115.203 243.829 123.759 259 126C257.552 129.004 257.4 132.905 255.397 135.561C251.808 140.32 245.581 143.967 241 147.75C229.093 157.585 216.885 167.056 205 176.919C199.588 181.411 193.289 185.396 189 191C184.886 187.864 180.185 185.911 175.001 187.894C165.509 191.523 164.078 205.54 172.044 211.486C177.865 215.832 186.385 214.008 190.258 207.981C193.615 202.758 189.116 195.256 192.527 190.885C197.332 184.728 205.916 179.714 212 174.803C227.019 162.681 242.798 151.072 257 138C257.726 140.255 259.609 143.028 259.471 145.424C259.124 151.478 252.18 159.703 249.309 165C239.868 182.414 228.614 199.712 221 218C212.658 215.54 208.619 219.919 202 224.19C198.077 226.721 194.196 228.147 192.653 233.004C191.087 237.93 193.061 242.174 193.451 247C193.698 250.042 192.726 252.94 193 256C194.817 253.794 195.394 251.802 196 249C202 251.187 206.782 250.786 213 250L214 258C216.584 254.285 213.432 249.828 216.408 246.275C218.86 243.347 223.081 242.537 225.772 239.786C228.092 237.416 228.861 234.029 231.302 231.789C235.817 227.646 242.67 225.113 248 222.14C255.532 217.938 263.75 211.616 272 209.083C277.422 207.419 283.323 207.847 289 206C286.301 198.008 285 191.459 285 183C271.886 183.117 264.345 194.402 272 206C257.462 212.788 242.396 221.166 229 230C228.744 225.319 224.553 221.293 224.812 217C225.207 210.463 232.246 201.638 235.424 196C241.202 185.751 246.702 175.342 252.309 165C255.654 158.829 259.878 152.707 262 146C265.919 147.428 269.835 148.648 274 147.347C282.068 144.827 285.996 134.268 281.258 127.043C278.105 122.236 272.171 121.736 268.3 117.856C260.063 109.598 254.308 98.2709 247.251 89C243.44 83.994 237.64 79.955 235.232 74C231.136 63.8663 242.311 60.0503 250 61C240.338 49.1174 223.547 61.4882 228.742 74.9992C231.156 81.2759 238.275 82.2941 242.331 87.0548C251.35 97.6412 258.504 109.977 267 121z"/>
<path style="fill:#7030a0; stroke:none;" d="M289 206C306.199 201.548 323.373 199.876 341 202.428C346.361 203.205 351.73 204.222 357 205.474C359.359 206.034 362.203 207.196 364.297 205.357C369.348 200.92 368 189.929 368 184L368 144C368 138.671 366.588 130.88 369.028 126C371.531 120.993 377.093 116.907 381 113L406 88C409.868 84.1324 415.143 80.145 417.333 75C421.465 65.2905 411.153 56.6031 402 61.179C397.337 63.5104 393.632 68.3682 390 72C381.035 80.9646 372.371 91.6943 362 99C353.54 82.692 331.191 74.8322 314 80.8356C304.323 84.2151 295.805 91.7316 290 100C281.807 91.8074 273.46 83.7952 265.17 75.7145C260.544 71.2052 256.763 65.4276 251 62.2284C242.276 57.3857 230.402 64.6018 235.322 75C237.946 80.546 243.736 85.6804 248.004 90C255.955 98.0466 264.001 106.001 272 114C276.021 118.021 282.379 122.528 284.397 128C286.676 134.182 285 143.462 285 150C285 168.422 282.466 188.471 289 206z"/>
<path style="fill:#ba9ae4; stroke:none;" d="M249.667 61.3333C249.222 61.7778 250.278 61.7222 250.333 61.6667C250.778 61.2221 249.722 61.2778 249.667 61.3333z"/>
<path style="fill:#8751b4; stroke:none;" d="M234.333 67.6667C234.278 67.7223 234.222 68.7778 234.667 68.3333C234.722 68.278 234.778 67.2222 234.333 67.6667z"/>
<path style="fill:#550055; stroke:none;" d="M418 69L419 70L418 69z"/>
<path style="fill:#400080; stroke:none;" d="M418 71L419 72L418 71z"/>
<path style="fill:#dac8ff; stroke:none;" d="M287 85C280.279 81.175 272.43 77.1403 265 75C268.984 81.5141 277.888 82.1952 283.856 86.3519C287.773 89.0805 289.028 94.0402 293 97C298.134 90.2806 304.452 85.6915 312 82C307.216 67.9374 287.83 69.8305 287 85z"/>
<path style="fill:#a177cd; stroke:none;" d="M263 74L264 75L263 74z"/>
<path style="fill:#b796e0; stroke:none;" d="M264.333 74.6667C264.278 74.722 264.222 75.7779 264.667 75.3333C264.722 75.2776 264.778 74.2223 264.333 74.6667z"/>
<path style="fill:#b390dc; stroke:none;" d="M237 78L238 79L237 78M238 79L239 80L238 79z"/>
<path style="fill:#000000; stroke:none;" d="M269 79L270 80L269 79z"/>
<path style="fill:#b390dc; stroke:none;" d="M239 80L240 81L239 80z"/>
<path style="fill:#000000; stroke:none;" d="M270 80C275.236 87.4324 282.579 93.579 289 100C292.024 96.6952 290.132 94.6068 288.1 91.0432C284.408 84.5661 276.96 81.9897 270 80z"/>
<path style="fill:#b390dc; stroke:none;" d="M240 81L241 82L240 81z"/>
<path style="fill:#0000ff; stroke:none;" d="M279 81L280 82L279 81z"/>
<path style="fill:#aa83d4; stroke:none;" d="M241 82L242 83L241 82z"/>
<path style="fill:#0000ff; stroke:none;" d="M276 82L277 83L276 82z"/>
<path style="fill:#b592dd; stroke:none;" d="M308 83L309 84L308 83z"/>
<path style="fill:#550055; stroke:none;" d="M345 83L346 84L345 83z"/>
<path style="fill:#b492dd; stroke:none;" d="M306 84L307 85L306 84z"/>
<path style="fill:#a177cc; stroke:none;" d="M303 86L304 87L303 86z"/>
<path style="fill:#8080ff; stroke:none;" d="M196 88L197 89L196 88M208 88L209 89L208 88z"/>
<path style="fill:#000000; stroke:none;" d="M247 89L248 90L247 89z"/>
<path style="fill:#a77fd1; stroke:none;" d="M299 89L300 90L299 89z"/>
<path style="fill:#000000; stroke:none;" d="M248 90L249 91L248 90z"/>
<path style="fill:#9d71c8; stroke:none;" d="M298 90L299 91L298 90z"/>
<path style="fill:#000000; stroke:none;" d="M249 91C251.48 96.8955 255.849 101.838 259.576 107C262.344 110.834 264.849 115.461 268.325 118.698C272.685 122.758 278.838 123.119 281.821 129.004C285.688 136.633 280.024 145.982 272 147.59C268.576 148.277 265.258 146.862 262 146C254.369 162.344 244.908 178.307 236 194C232.438 200.276 224.87 209.77 224.132 217C223.692 221.314 228.489 225.413 229 230C243.385 222.431 258.431 214.948 272 206C266.177 194.415 271.238 183.324 285 183L285 145C285 139.569 286.295 132.15 284.397 127C282.644 122.246 277.485 118.485 274 115C265.989 106.989 258.27 97.53 249 91z"/>
<path style="fill:#550055; stroke:none;" d="M356 91L357 92L356 91z"/>
<path style="fill:#996bc4; stroke:none;" d="M296 92L297 93L296 92z"/>
<path style="fill:#a278cd; stroke:none;" d="M295 93L296 94L295 93z"/>
<path style="fill:#ad88d7; stroke:none;" d="M294 94L295 95L294 94z"/>
<path style="fill:#dac8ff; stroke:none;" d="M446 127C443.293 138.701 439.276 150.685 435.237 162C433.587 166.622 430.553 170.001 430 175C422.145 171.73 414.61 167.558 407 163.753C403.633 162.07 399.055 160.578 396.59 157.61C390.076 149.766 399.878 138.481 387.996 132.457C386.436 131.666 384.74 131.242 383 131.12C376.576 130.67 369.455 135.305 368.564 142C368.17 144.963 369.212 148.03 369.286 151C369.541 161.119 369.312 170.692 382 172C382.442 182.283 385.045 192.899 387 203C388.107 208.721 388.446 214.724 391 220C392.161 216.222 390.721 211.869 390.08 208C388.864 200.654 387.471 193.344 386.247 186C385.684 182.623 384.337 178.534 384.746 175.105C385.149 171.721 388.582 170.687 390.787 168.61C393.08 166.45 394.126 163.939 395 161C405.178 165.237 418.069 170.287 426.856 176.966C432.991 181.63 433.212 190.224 443 189.866C449.603 189.624 454.578 184.483 454.955 178C455.151 174.638 453.84 170.343 456.407 167.637C459.728 164.138 465.801 162 470 159.694C478.714 154.909 487.52 150.19 496 145C496.842 149.172 501.48 152.93 501.323 157C501.094 162.964 494.476 170.793 491.745 176C482.798 193.057 470.588 209.897 464 228C459.765 226.275 455.697 224.34 451 225.395C442.594 227.283 438.223 237.309 442.179 244.985C444.543 249.573 448.957 250.365 452.91 252.923C455.95 254.89 457.925 258.116 460 261C465.356 259.413 468.903 254.882 474 253.173C477.168 252.111 480.679 253.692 484 253L476 249C485.407 244.127 504.528 232.303 493 220C501.438 211.925 510.973 204.974 520 197.576C524.67 193.748 529.525 188.44 535 185.807C538.339 184.202 541.523 186.541 544.791 185.353C549.984 183.466 551.793 178.124 558 177C558 173.434 558.509 169.292 556.821 166.015C552.276 157.197 539.079 156.906 533.742 165.043C530.127 170.555 532.331 177.69 535 183C519.411 189.948 508.59 206.101 494 214.809C487.261 218.831 479.949 212.292 473.228 219.214C468.409 224.177 470.989 231.454 467 237C466.767 234.43 465.884 231.563 466.369 229C467.589 222.547 473.158 215.765 476.22 210C481.921 199.267 487.899 188.684 493.691 178C496.995 171.905 499.811 164.597 504.105 159.148C508.341 153.773 516.208 156.097 519.821 148.995C526.054 136.743 511.102 122.464 500.109 132.279C496.68 135.34 496.888 140.15 493.683 143.096C487.411 148.858 477.455 152.6 470 156.694C465.131 159.368 458.593 164.772 453 165.377C450.521 165.646 448.327 164.145 446 163.565C442.898 162.791 440.042 163.278 437 164C440.818 152.268 446.926 139.305 448 127C452.572 126.274 456.606 124.35 458.821 119.995C463.07 111.644 457.619 100.486 448 100.134C437.912 99.7652 431.722 111.234 436.179 119.995C438.218 124.003 441.859 125.919 446 127z"/>
<path style="fill:#0000ff; stroke:none;" d="M259 106L260 107L259 106M216 110L217 111L216 110z"/>
<path style="fill:#8080ff; stroke:none;" d="M219 111L220 112L219 111M208 113L209 114L208 113M264 113L265 114L264 113M262 114L263 115L262 114M246 122L247 123L246 122z"/>
<path style="fill:#0000ff; stroke:none;" d="M249 123L250 124L249 123z"/>
<path style="fill:#8080ff; stroke:none;" d="M190 124L191 125L190 124z"/>
<path style="fill:#0000ff; stroke:none;" d="M259 124L260 125L259 124M191 129L192 130L191 129M256 135L257 136L256 135M441 142L442 143L441 142z"/>
<path style="fill:#000000; stroke:none;" d="M368 144C368 164.372 371.41 187.764 364 207C372.978 210.037 381.288 214.373 390 218C386.379 203.302 383.192 187.088 382 172C379.82 171.605 377.925 171.176 375.999 169.991C365.183 163.334 372.188 153.348 368 144M495 145C486.744 150.444 477.758 155.151 469 159.745C465.001 161.842 458.543 164.095 455.643 167.637C453.403 170.372 455.21 174.773 454.887 178C454.278 184.097 448.342 190.041 442 189.717C433.639 189.289 432.876 181.295 427.698 176.966C424.433 174.237 419.784 172.645 416 170.753C409.183 167.345 402.339 163.114 395 161C393.935 164.132 392.524 166.416 389.961 168.61C388.011 170.28 384.994 171.418 384.488 174.213C383.944 177.214 385.258 181.035 385.753 184L389.753 207C390.393 210.829 390.503 216.199 392.938 219.391C396.946 224.646 404.944 227.967 410 232.3C422.044 242.624 434.155 255.531 441 270C447.736 267.767 452.981 262.92 460 261C458.472 257.935 456.75 254.89 453.826 252.923C449.523 250.028 444.756 249.08 442.179 243.996C438.185 236.115 444.458 226.115 453 225.257C456.806 224.875 460.435 226.983 464 228C472.313 210.196 483 193.356 492.22 176C494.891 170.972 502.442 161.841 501.899 156C501.558 152.326 497.115 147.996 495 145z"/>
<path style="fill:#8080ff; stroke:none;" d="M246 146L247 147L246 146M491 147L492 148L491 147M240 148L241 149L240 148M257 150L258 151L257 150z"/>
<path style="fill:#0000ff; stroke:none;" d="M369 152L370 153L369 152M394 152L395 153L394 152M482 152L483 153L482 152M472 155L473 156L472 155M473 157L474 158L473 157z"/>
<path style="fill:#8080ff; stroke:none;" d="M501 158L502 159L501 158z"/>
<path style="fill:#0000ff; stroke:none;" d="M230 159L231 160L230 159M463 160L464 161L463 160z"/>
<path style="fill:#8080ff; stroke:none;" d="M251 161L252 162L251 161z"/>
<path style="fill:#0000ff; stroke:none;" d="M435 161L436 162L435 161M369 163L370 164L369 163M394 163L395 164L394 163M219 165L220 166L219 165z"/>
<path style="fill:#8080ff; stroke:none;" d="M370 165L371 166L370 165M393 165L394 166L393 165M454 165L455 166L454 165M495 169L496 170L495 169z"/>
<path style="fill:#7030a0; stroke:none;" d="M108 234C74.7859 236.918 67.4747 281.208 86 303C75.6364 305.986 66.6663 313.064 57 317.742C50.3853 320.942 41.6214 323.221 36.2284 328.39C29.473 334.865 33.6259 346.632 43 346.941C49.1547 347.143 54.6887 343.411 60 340.753C71.4101 335.044 82.5599 328.967 94 323.247C98.4091 321.042 103.942 316.963 109 316.905C115.479 316.831 122.934 320.645 129 322.667C148.047 329.016 169.605 339.786 190 336C190 318.692 193.042 302.153 199.45 286C201.357 281.192 203.503 276.528 205.996 272C207.305 269.624 209.081 266.875 207.867 264.093C205.163 257.895 194.715 255.707 189 253.691C176.427 249.257 163.574 245.667 150.985 241.34C146.093 239.659 139.325 238.644 135.275 235.298C131.415 232.11 128.996 225.406 126.756 221C121.521 210.701 116.414 200.334 111.247 190C108.553 184.613 106.209 177.551 101.671 173.419C93.5571 166.03 81.2591 173.468 83.5332 184C85.0507 191.028 89.6952 197.788 93.1389 204C98.4881 213.65 103.76 223.817 108 234z"/>
<path style="fill:#8080ff; stroke:none;" d="M245 172L246 173L245 172M209 176L210 177L209 176z"/>
<path style="fill:#7030a0; stroke:none;" d="M442 270C445.822 283.271 452.784 295.246 455.551 309C456.599 314.208 457.728 319.688 457.961 325C458.211 330.699 457.37 336.485 459 342C465.625 341.653 472.409 342.639 479 341.7C489.507 340.202 499.965 336.344 510 333C517.419 330.527 524.597 327.479 532 325C535.128 323.953 538.638 322.281 541.999 322.398C547.147 322.578 552.493 327.494 557 329.753L591 346.753C595.921 349.22 601.304 353.386 607 353.514C616.359 353.724 622.341 340.934 614.772 334.56C611.065 331.439 605.252 329.978 601 327.576C589.633 321.154 578.044 314.041 566 309C570.775 301.255 574.9 294.29 575.829 285C577.876 264.542 564.058 243.154 543 240C548.355 228.53 554.577 217.34 560.247 206C562.757 200.98 566.482 195.544 567.606 190C569.584 180.238 559.09 173.284 551.04 179.434C545.773 183.457 543.121 190.249 540.247 196C534.833 206.834 529.748 217.555 523.781 228.09C521.317 232.44 519.715 238.189 515.787 241.49C510.508 245.926 501.417 246.883 495 249.001C477.347 254.827 457.252 259.171 442 270z"/>
<path style="fill:#8080ff; stroke:none;" d="M203 178L204 179L203 178z"/>
<path style="fill:#996cc5; stroke:none;" d="M550 179L551 180L550 179z"/>
<path style="fill:#8080ff; stroke:none;" d="M489 180L490 181L489 180z"/>
<path style="fill:#9566c1; stroke:none;" d="M549 180L550 181L549 180z"/>
<path style="fill:#a982d3; stroke:none;" d="M548 181L549 182L548 181z"/>
<path style="fill:#0000ff; stroke:none;" d="M534 182L535 183L534 182z"/>
<path style="fill:#8080ff; stroke:none;" d="M239 183L240 184L239 183z"/>
<path style="fill:#000000; stroke:none;" d="M493 219C494.139 221.266 495.369 223.464 495.775 226.002C497.623 237.549 483.911 243.455 476 249C484.707 255.512 494.906 249.087 504 246.424C509.922 244.69 515.889 243.701 519.204 237.981C521.457 234.094 524.103 229.485 524.787 225C525.459 220.591 524.226 216.007 526.742 212.005C529.189 208.113 533.381 206.79 536.363 203.586C540.395 199.252 543.381 191.622 545 186C542.151 185.519 538.883 184.043 536 184.843C530.816 186.28 526.088 191.897 522 195.197C512.301 203.025 502.17 210.56 493 219z"/>
<path style="fill:#0000ff; stroke:none;" d="M193 189L194 190L193 189z"/>
<path style="fill:#8080ff; stroke:none;" d="M483 191L484 192L483 191z"/>
<path style="fill:#a67ed0; stroke:none;" d="M285 193L285 196C285.696 194.446 285.696 194.554 285 193z"/>
<path style="fill:#0000ff; stroke:none;" d="M387 193L388 194L387 193z"/>
<path style="fill:#8080ff; stroke:none;" d="M524 193L525 194L524 193z"/>
<path style="fill:#0000ff; stroke:none;" d="M233 194L234 195L233 194z"/>
<path style="fill:#8080ff; stroke:none;" d="M518 195L519 196L518 195z"/>
<path style="fill:#b592dd; stroke:none;" d="M286.333 198.667C286.278 198.722 286.222 199.778 286.667 199.333C286.722 199.278 286.778 198.222 286.333 198.667z"/>
<path style="fill:#9f75bf; stroke:none;" d="M314 201C316.052 201.874 317.747 201.953 320 202C317.948 201.126 316.253 201.047 314 201z"/>
<path style="fill:#b594ce; stroke:none;" d="M320 201C322.052 201.874 323.747 201.953 326 202C323.948 201.126 322.253 201.047 320 201z"/>
<path style="fill:#a37ac2; stroke:none;" d="M326 201C327.769 201.779 329.036 201.912 331 202C329.231 201.221 327.964 201.088 326 201z"/>
<path style="fill:#8c59b3; stroke:none;" d="M331.667 201.333C331.222 201.778 332.278 201.722 332.333 201.667C332.778 201.222 331.722 201.278 331.667 201.333z"/>
<path style="fill:#400080; stroke:none;" d="M92 202L93 203L92 202z"/>
<path style="fill:#9e73be; stroke:none;" d="M305 202C306.248 202.685 306.548 202.749 308 203C306.752 202.315 306.452 202.251 305 202z"/>
<path style="fill:#d4c2e3; stroke:none;" d="M308.667 202.333C308.222 202.778 309.278 202.722 309.333 202.667C309.778 202.222 308.722 202.278 308.667 202.333z"/>
<path style="fill:#ffffff; stroke:none;" d="M310 202.424C285.928 205.624 263.787 212.317 244 226.884C189.796 266.788 173.619 347.377 208.453 404.996C225.99 434.005 255.36 454.169 287 464.667C303.213 470.046 321.142 470.784 338 468.714C359.886 466.026 378.289 459.857 397 447.946C421.379 432.427 442.484 406.601 451.645 379C468.713 327.578 451.691 264.619 409 230.666C393.286 218.168 376.308 210.466 357 205.87C342.017 202.303 325.372 200.381 310 202.424z"/>
<path style="fill:#e5daee; stroke:none;" d="M336 202C337.248 202.685 337.548 202.749 339 203C337.752 202.315 337.452 202.251 336 202z"/>
<path style="fill:#b08dca; stroke:none;" d="M339 202C340.248 202.685 340.548 202.749 342 203C340.752 202.315 340.452 202.251 339 202z"/>
<path style="fill:#0000ff; stroke:none;" d="M477 202L478 203L477 202z"/>
<path style="fill:#a983c6; stroke:none;" d="M299 203C300.248 203.685 300.548 203.749 302 204C300.752 203.315 300.452 203.251 299 203z"/>
<path style="fill:#c2a8d7; stroke:none;" d="M345 203C346.248 203.685 346.548 203.749 348 204C346.752 203.315 346.452 203.251 345 203z"/>
<path style="fill:#550055; stroke:none;" d="M93 204L94 205L93 204z"/>
<path style="fill:#9d70c8; stroke:none;" d="M288 204L289 205L288 204z"/>
<path style="fill:#ceb9de; stroke:none;" d="M295.667 204.333C295.222 204.778 296.278 204.722 296.333 204.667C296.778 204.222 295.722 204.278 295.667 204.333z"/>
<path style="fill:#ad89c8; stroke:none;" d="M351.667 204.333C351.222 204.778 352.278 204.722 352.333 204.667C352.778 204.222 351.722 204.278 351.667 204.333z"/>
<path style="fill:#0000ff; stroke:none;" d="M227 205L228 206L227 205z"/>
<path style="fill:#b899d0; stroke:none;" d="M290.667 205.333C290.222 205.778 291.278 205.722 291.333 205.667C291.778 205.222 290.722 205.278 290.667 205.333M355 205C356.248 205.685 356.548 205.749 358 206C356.752 205.315 356.452 205.251 355 205z"/>
<path style="fill:#8080ff; stroke:none;" d="M387 205L388 206L387 205z"/>
<path style="fill:#dac8ff; stroke:none;" d="M525 225C529.984 220.068 533.61 211.566 536 205C525.492 208.121 525 215.427 525 225z"/>
<path style="fill:#000080; stroke:none;" d="M94 206L95 207L94 206z"/>
<path style="fill:#d5c2e3; stroke:none;" d="M359 206L360 207L359 206z"/>
<path style="fill:#ad88c8; stroke:none;" d="M360 206L361 207L360 206z"/>
<path style="fill:#0000ff; stroke:none;" d="M508 206L509 207L508 206z"/>
<path style="fill:#8080ff; stroke:none;" d="M531 206L532 207L531 206z"/>
<path style="fill:#000000; stroke:none;" d="M216 254C225.794 246.509 233.011 235.882 243 228.375C253.684 220.346 266.123 216.223 277 209C270.817 207.507 265.238 212.024 260 215C250.909 220.166 239.256 224.318 231.302 231.105C228.832 233.213 227.96 236.52 225.772 238.896C220.612 244.501 212.189 244.71 216 254z"/>
<path style="fill:#b18eda; stroke:none;" d="M534 208L535 209L534 208z"/>
<path style="fill:#8080ff; stroke:none;" d="M268 210L269 211L268 210z"/>
<path style="fill:#af8bd9; stroke:none;" d="M533 210L534 211L533 210z"/>
<path style="fill:#0000ff; stroke:none;" d="M497 212L498 213L497 212z"/>
<path style="fill:#ad88d7; stroke:none;" d="M532 212L533 213L532 212z"/>
<path style="fill:#7030a0; stroke:none;" d="M34 213.443C27.206 214.25 20.4662 216.099 15 220.39C-6.08072 236.94 -1.4613 270.146 23 280.662C29.3674 283.399 37.1696 283.647 44 282.816C48.9221 282.216 53.0513 279.848 57 276.981C63.4723 272.283 69.7168 265.036 71.4815 256.996C76.4282 234.46 57.947 210.599 34 213.443z"/>
<path style="fill:#0000ff; stroke:none;" d="M471 213L472 214L471 213z"/>
<path style="fill:#ab85d5; stroke:none;" d="M531 214L532 215L531 214z"/>
<path style="fill:#0000ff; stroke:none;" d="M259 215L260 216L259 215z"/>
<path style="fill:#dac8ff; stroke:none;" d="M133 235C136.484 233.996 139.658 232.39 143 231C145.564 245.149 166.059 246.743 169.463 232C171.858 221.627 161.8 213.568 152.001 216.653C146.064 218.522 145.268 223.567 141.502 227.61C138.732 230.581 135.07 231.352 133 235z"/>
<path style="fill:#0000ff; stroke:none;" d="M221 216L222 217L221 216M391 216L392 217L391 216z"/>
<path style="fill:#a982d3; stroke:none;" d="M530 216L531 217L530 216z"/>
<path style="fill:#0000ff; stroke:none;" d="M249 218L250 219L249 218z"/>
<path style="fill:#a77fd1; stroke:none;" d="M529 218L530 219L529 218z"/>
<path style="fill:#0000ff; stroke:none;" d="M250 220L251 221L250 220z"/>
<path style="fill:#a57cd0; stroke:none;" d="M528 220L529 221L528 220z"/>
<path style="fill:#7030a0; stroke:none;" d="M607 220.465C601.92 221.38 597.098 223.372 593 226.529C569.669 244.505 576.765 283.718 607 289.076C611.097 289.802 614.879 290.124 619 289.384C625.08 288.292 631.064 286.285 635.999 282.471C654.876 267.879 654.045 238.28 634 225.108C626.312 220.056 615.953 218.85 607 220.465z"/>
<path style="fill:#550055; stroke:none;" d="M59 221L60 222L59 221z"/>
<path style="fill:#a379ce; stroke:none;" d="M527 222L528 223L527 222z"/>
<path style="fill:#0000ff; stroke:none;" d="M240 223L241 224L240 223z"/>
<path style="fill:#000080; stroke:none;" d="M128 224L129 225L128 224z"/>
<path style="fill:#0000ff; stroke:none;" d="M465 224L466 225L465 224z"/>
<path style="fill:#9f72ca; stroke:none;" d="M526 224L527 225L526 224z"/>
<path style="fill:#400080; stroke:none;" d="M64 226L65 227L64 226z"/>
<path style="fill:#550055; stroke:none;" d="M129 226L130 227L129 226z"/>
<path style="fill:#8080ff; stroke:none;" d="M231 228L232 229L231 228z"/>
<path style="fill:#000000; stroke:none;" d="M134 235C137.717 237.78 142.505 238.96 147 240C145.44 237.022 143.949 234.23 143 231C139.74 231.939 136.932 233.296 134 235z"/>
<path style="fill:#550055; stroke:none;" d="M68 232L69 233L68 232z"/>
<path style="fill:#000080; stroke:none;" d="M4 233L5 234L4 233z"/>
<path style="fill:#0000ff; stroke:none;" d="M471 236L472 237L471 236z"/>
<path style="fill:#550055; stroke:none;" d="M544 236L545 237L544 236z"/>
<path style="fill:#000000; stroke:none;" d="M465 247C472.294 248.067 476.104 248.376 481 242C478.187 240.773 474.223 237.396 471.058 237.906C467.268 238.516 466.126 244.008 465 247z"/>
<path style="fill:#000080; stroke:none;" d="M543 238L544 239L543 238z"/>
<path style="fill:#8080ff; stroke:none;" d="M148 240L149 241L148 240z"/>
<path style="fill:#0000ff; stroke:none;" d="M158 242L159 243L158 242z"/>
<path style="fill:#ad88d7; stroke:none;" d="M156 243L157 244L156 243z"/>
<path style="fill:#000080; stroke:none;" d="M503 246L504 247L503 246z"/>
<path style="fill:#0000ff; stroke:none;" d="M468 247L469 248L468 247z"/>
<path style="fill:#000000; stroke:none;" d="M457 252L461 259C465.219 257.044 468.798 254.124 471 250C465.196 248.693 462.188 248.886 457 252z"/>
<path style="fill:#8080ff; stroke:none;" d="M471 248L472 249L471 248M477 248L478 249L477 248z"/>
<path style="fill:#000000; stroke:none;" d="M196 249C194.032 257.621 203.676 260.835 210 265C213.022 259.46 214.557 256.072 212 250C206.09 251.097 201.754 250.522 196 249z"/>
<path style="fill:#400080; stroke:none;" d="M82 250L83 251L82 250z"/>
<path style="fill:#0000ff; stroke:none;" d="M209 250L210 251L209 250M212 250L213 251L212 250z"/>
<path style="fill:#000080; stroke:none;" d="M1 251L2 252L1 251z"/>
<path style="fill:#000000; stroke:none;" d="M467 257C471.227 258.25 476.094 255.731 480 254C474.818 250.922 471.428 254.025 467 257z"/>
<path style="fill:#000080; stroke:none;" d="M188 253L189 254L188 253z"/>
<path style="fill:#8080ff; stroke:none;" d="M215 253L216 254L215 253z"/>
<path style="fill:#0000ff; stroke:none;" d="M468 253L469 254L468 253z"/>
<path style="fill:#ac86d6; stroke:none;" d="M483 253L484 254L483 253z"/>
<path style="fill:#400080; stroke:none;" d="M191 254L192 255L191 254z"/>
<path style="fill:#000080; stroke:none;" d="M194 255L195 256L194 255z"/>
<path style="fill:#8080ff; stroke:none;" d="M468 256L469 257L468 256z"/>
<path style="fill:#000000; stroke:none;" d="M466 258L467 259L466 258z"/>
<path style="fill:#9e73c9; stroke:none;" d="M464 259L465 260L464 259z"/>
<path style="fill:#9768c4; stroke:none;" d="M462 260L463 261L462 260z"/>
<path style="fill:#986ac4; stroke:none;" d="M68 263L69 264L68 263z"/>
<path style="fill:#dac8ff; stroke:none;" d="M53 279C53.6105 282.017 54.5168 284.373 57.1088 286.297C62.1251 290.02 71.6897 290.081 74.9576 283.895C76.6154 280.757 75.9028 271.618 75.3966 268.044C75.0034 265.268 72.2458 262.754 69.3742 264.137C66.8319 265.361 65.0733 268.861 63.2423 270.91C60.2597 274.247 56.8684 276.794 53 279z"/>
<path style="fill:#000080; stroke:none;" d="M452 263L453 264L452 263M450 264L451 265L450 264z"/>
<path style="fill:#9a6cc6; stroke:none;" d="M67 265L68 266L67 265z"/>
<path style="fill:#b898ce; stroke:none;" d="M209 265L210 266L209 265z"/>
<path style="fill:#b592dd; stroke:none;" d="M66 267L67 268L66 267z"/>
<path style="fill:#b18ecb; stroke:none;" d="M208 267L209 268L208 267z"/>
<path style="fill:#aa83d4; stroke:none;" d="M75 269L75 277C76.1614 274.23 76.1614 271.77 75 269z"/>
<path style="fill:#c6add9; stroke:none;" d="M207 269L208 270L207 269z"/>
<path style="fill:#9768ba; stroke:none;" d="M205 272L206 273L205 272M442 272L443 273L442 272z"/>
<path style="fill:#b492dd; stroke:none;" d="M61 273L62 274L61 273z"/>
<path style="fill:#9a6dbc; stroke:none;" d="M204 274L205 275L204 274M443 274L444 275L443 274z"/>
<path style="fill:#996cc5; stroke:none;" d="M57 276L58 277L57 276z"/>
<path style="fill:#9d72be; stroke:none;" d="M203 276L204 277L203 276M444 276L445 277L444 276z"/>
<path style="fill:#bfa2e7; stroke:none;" d="M75.3333 277.667C75.2777 277.722 75.2222 278.778 75.6667 278.333C75.7222 278.278 75.7778 277.222 75.3333 277.667z"/>
<path style="fill:#a57cd0; stroke:none;" d="M54 278L55 279L54 278z"/>
<path style="fill:#986aba; stroke:none;" d="M202 278L203 279L202 278M445 278L446 279L445 278z"/>
<path style="fill:#d8c7e5; stroke:none;" d="M202 279L203 280L202 279z"/>
<path style="fill:#ac86c7; stroke:none;" d="M261.667 279.333C261.222 279.778 262.278 279.722 262.333 279.667C262.778 279.222 261.722 279.278 261.667 279.333z"/>
<path style="fill:#8e5cb4; stroke:none;" d="M263.667 279.333C263.222 279.778 264.278 279.722 264.333 279.667C264.778 279.222 263.722 279.278 263.667 279.333z"/>
<path style="fill:#7030a0; stroke:none;" d="M284 311C281.316 309.645 278.953 308.564 276 308C264.974 322.04 248.47 302.831 259.214 291.055C267.687 281.768 273.98 294.374 283 289C276.437 272.8 251.21 278.561 247.532 294C245.791 301.311 247.726 310.353 253.213 315.671C262.315 324.492 278.196 322.089 284 311z"/>
<path style="fill:#a279c1; stroke:none;" d="M269 279C270.506 279.683 271.315 279.826 273 280C271.494 279.317 270.685 279.174 269 279z"/>
<path style="fill:#8f5db4; stroke:none;" d="M289 279C291.613 280.098 294.165 279.993 297 280C294.387 278.902 291.835 279.007 289 279z"/>
<path style="fill:#d6c4e4; stroke:none;" d="M297 279L298 280L297 279z"/>
<path style="fill:#aa85c7; stroke:none;" d="M322 279L322 302C324.284 296.557 324.284 284.443 322 279z"/>
<path style="fill:#8f5db4; stroke:none;" d="M323 279C325.613 280.098 328.165 279.993 331 280C328.387 278.902 325.835 279.007 323 279z"/>
<path style="fill:#b493cd; stroke:none;" d="M350 279L350 301C352.219 295.713 352.219 284.287 350 279z"/>
<path style="fill:#8f5db4; stroke:none;" d="M351 279C353.613 280.098 356.164 279.993 359 280C356.387 278.902 353.836 279.007 351 279M367 279C373.928 281.907 384.503 280 392 280C385.072 277.093 374.497 279 367 279z"/>
<path style="fill:#d8c7e5; stroke:none;" d="M445 279L446 280L445 279z"/>
<path style="fill:#d3c0e2; stroke:none;" d="M258 280L259 281L258 280z"/>
<path style="fill:#a379c1; stroke:none;" d="M259 280L260 281L259 280z"/>
<path style="fill:#a279c1; stroke:none;" d="M274 280L275 281L274 280z"/>
<path style="fill:#7030a0; stroke:none;" d="M289 280L289 321L318 321L318 314C313.03 314 303.579 315.816 299.318 312.972C296.484 311.081 297.006 306.946 297 304L297 280L289 280z"/>
<path style="fill:#a983c6; stroke:none;" d="M297 280L297 313C299.701 306.564 298 296.951 298 290C298 286.581 298.328 283.166 297 280z"/>
<path style="fill:#7030a0; stroke:none;" d="M323 280C323 289.704 320.633 303.052 324.92 311.996C330.647 323.946 349.274 324.037 355.992 312.996C361.427 304.062 359 290.005 359 280L351 280C351 287.878 352.914 298.731 349.427 305.999C347.814 309.364 344.175 313.721 340.001 313.338C335.946 312.966 332.775 308.572 331.653 305C329.335 297.62 331 287.692 331 280L323 280M367 280L367 321C375.417 321 387.284 322.943 394.981 318.825C402.895 314.59 400.858 303.764 394 300C395.54 298.091 396.994 296.335 397.853 293.995C399.595 289.249 398.07 282.611 392.956 280.603C385.927 277.843 374.518 280 367 280z"/>
<path style="fill:#cbb4dc; stroke:none;" d="M201 281L202 282L201 281z"/>
<path style="fill:#d4c1e2; stroke:none;" d="M277 281L278 282L277 281z"/>
<path style="fill:#cbb4dc; stroke:none;" d="M446 281L447 282L446 281z"/>
<path style="fill:#a983c6; stroke:none;" d="M255 282L256 283L255 282z"/>
<path style="fill:#b695ce; stroke:none;" d="M278 282L279 283L278 282z"/>
<path style="fill:#cbb4dc; stroke:none;" d="M396 282L397 283L396 282z"/>
<path style="fill:#bb9dd2; stroke:none;" d="M200 283L201 284L200 283z"/>
<path style="fill:#996cbb; stroke:none;" d="M279 283L280 284L279 283z"/>
<path style="fill:#bb9dd2; stroke:none;" d="M447 283L448 284L447 283z"/>
<path style="fill:#400080; stroke:none;" d="M593 283L594 284L593 283z"/>
<path style="fill:#ae8ac9; stroke:none;" d="M397 284L398 285L397 284z"/>
<path style="fill:#000080; stroke:none;" d="M76 285L77 286L76 285z"/>
<path style="fill:#9d72be; stroke:none;" d="M199 285L200 286L199 285z"/>
<path style="fill:#a076c0; stroke:none;" d="M281 285L282 286L281 285z"/>
<path style="fill:#9d72be; stroke:none;" d="M448 285L449 286L448 285z"/>
<path style="fill:#d6c4e4; stroke:none;" d="M199 286L200 287L199 286z"/>
<path style="fill:#9363b7; stroke:none;" d="M265 286C266.248 286.685 266.548 286.749 268 287C266.752 286.315 266.452 286.251 265 286z"/>
<path style="fill:#cbb4dc; stroke:none;" d="M282 286L283 287L282 286z"/>
<path style="fill:#a075c0; stroke:none;" d="M376 286C379.432 287.44 383.3 287 387 287C383.568 285.56 379.7 286 376 286z"/>
<path style="fill:#a37ac2; stroke:none;" d="M398.333 286.667C398.278 286.722 398.222 287.778 398.667 287.333C398.722 287.278 398.778 286.222 398.333 286.667z"/>
<path style="fill:#d6c4e4; stroke:none;" d="M448 286L449 287L448 286z"/>
<path style="fill:#8080ff; stroke:none;" d="M71 287L72 288L71 287z"/>
<path style="fill:#a075c0; stroke:none;" d="M250 287L251 288L250 287M262 287L263 288L262 287z"/>
<path style="fill:#d6c3e3; stroke:none;" d="M263 287L264 288L263 287z"/>
<path style="fill:#c8b0da; stroke:none;" d="M270 287L271 288L270 287z"/>
<path style="fill:#a983c6; stroke:none;" d="M375 287L375 296C376.256 293.006 376.256 289.994 375 287z"/>
<path style="fill:#ffffff; stroke:none;" d="M376 287L376 296C379.302 296 383.766 296.747 386.852 295.397C389.891 294.067 390.564 289.967 387.681 288.028C384.725 286.039 379.397 287 376 287z"/>
<path style="fill:#b391cc; stroke:none;" d="M388 287L389 288L388 287z"/>
<path style="fill:#550055; stroke:none;" d="M575 287L576 288L575 287z"/>
<path style="fill:#400080; stroke:none;" d="M626 287L627 288L626 287z"/>
<path style="fill:#8080ff; stroke:none;" d="M61 288L62 289L61 288z"/>
<path style="fill:#b797cf; stroke:none;" d="M198 288L199 289L198 288z"/>
<path style="fill:#c8b0da; stroke:none;" d="M249 288L250 289L249 288z"/>
<path style="fill:#d5c2e3; stroke:none;" d="M283 288L284 289L283 288z"/>
<path style="fill:#b797cf; stroke:none;" d="M389 288L390 289L389 288z"/>
<path style="fill:#b898d0; stroke:none;" d="M449 288L450 289L449 288z"/>
<path style="fill:#550055; stroke:none;" d="M609 289L610 290L609 289z"/>
<path style="fill:#c7aeda; stroke:none;" d="M248 290L249 291L248 290z"/>
<path style="fill:#ac86c7; stroke:none;" d="M280 290L281 291L280 290z"/>
<path style="fill:#ae8ac9; stroke:none;" d="M390 290L390 293C390.696 291.446 390.696 291.554 390 290z"/>
<path style="fill:#c1a6d6; stroke:none;" d="M197 291L198 292L197 291z"/>
<path style="fill:#d8c6e5; stroke:none;" d="M279 291L280 292L279 291z"/>
<path style="fill:#c1a6d6; stroke:none;" d="M450 291L451 292L450 291z"/>
<path style="fill:#bc9ed2; stroke:none;" d="M257 292L258 293L257 292z"/>
<path style="fill:#a57dc3; stroke:none;" d="M276.667 292.333C276.222 292.778 277.278 292.722 277.333 292.667C277.778 292.222 276.722 292.278 276.667 292.333z"/>
<path style="fill:#b28fcb; stroke:none;" d="M398.333 292.667C398.278 292.722 398.222 293.778 398.667 293.333C398.722 293.278 398.778 292.222 398.333 292.667z"/>
<path style="fill:#b290cc; stroke:none;" d="M247 293L248 294L247 293z"/>
<path style="fill:#c4a9d7; stroke:none;" d="M196 294L197 295L196 294z"/>
<path style="fill:#bda0d3; stroke:none;" d="M256 294L257 295L256 294z"/>
<path style="fill:#b392cd; stroke:none;" d="M389 294L390 295L389 294z"/>
<path style="fill:#c3a8d7; stroke:none;" d="M451 294L452 295L451 294z"/>
<path style="fill:#b28fcb; stroke:none;" d="M388 295L389 296L388 295z"/>
<path style="fill:#986aba; stroke:none;" d="M397 295L398 296L397 295z"/>
<path style="fill:#c4aad8; stroke:none;" d="M246 296L246 302C246.951 299.715 246.951 298.285 246 296z"/>
<path style="fill:#a076c0; stroke:none;" d="M255.333 296.667C255.278 296.722 255.222 297.778 255.667 297.333C255.722 297.278 255.778 296.222 255.333 296.667z"/>
<path style="fill:#af8cca; stroke:none;" d="M376 296C379.432 297.44 383.3 297 387 297C383.568 295.56 379.7 296 376 296z"/>
<path style="fill:#b797cf; stroke:none;" d="M195 297L196 298L195 297z"/>
<path style="fill:#d3bfe1; stroke:none;" d="M396 297L397 298L396 297z"/>
<path style="fill:#b797cf; stroke:none;" d="M452 297L453 298L452 297z"/>
<path style="fill:#ccb5dd; stroke:none;" d="M255 298L255 303C255.83 300.969 255.83 300.03 255 298z"/>
<path style="fill:#cbb5dd; stroke:none;" d="M395 298L396 299L395 298z"/>
<path style="fill:#a279c1; stroke:none;" d="M194 300L195 301L194 300z"/>
<path style="fill:#a67fc4; stroke:none;" d="M395 300L396 301L395 300z"/>
<path style="fill:#a279c1; stroke:none;" d="M453 300L454 301L453 300z"/>
<path style="fill:#dccde8; stroke:none;" d="M331 301L331 304C331.696 302.446 331.696 302.554 331 301z"/>
<path style="fill:#9464b8; stroke:none;" d="M350 301L350 304C350.696 302.446 350.696 302.554 350 301z"/>
<path style="fill:#e5d9ed; stroke:none;" d="M246.333 302.667C246.278 302.722 246.222 303.778 246.667 303.333C246.722 303.278 246.778 302.222 246.333 302.667z"/>
<path style="fill:#c2a7d6; stroke:none;" d="M322 302L322 305C322.696 303.446 322.696 303.554 322 302z"/>
<path style="fill:#a983c6; stroke:none;" d="M375 303L375 314C376.431 310.59 376.431 306.41 375 303z"/>
<path style="fill:#cab2db; stroke:none;" d="M376 303C379.698 304.552 384.017 304 388 304C384.303 302.448 379.983 303 376 303z"/>
<path style="fill:#a379c1; stroke:none;" d="M388 303L389 304L388 303z"/>
<path style="fill:#000080; stroke:none;" d="M569 303L570 304L569 303z"/>
<path style="fill:#c4a9d7; stroke:none;" d="M193.333 304.667C193.278 304.722 193.222 305.778 193.667 305.333C193.722 305.278 193.778 304.222 193.333 304.667z"/>
<path style="fill:#a57dc3; stroke:none;" d="M331.333 304.667C331.278 304.722 331.222 305.778 331.667 305.333C331.722 305.278 331.778 304.222 331.333 304.667z"/>
<path style="fill:#ffffff; stroke:none;" d="M376 304L376 313C379.787 313 385.26 313.99 388.771 312.397C391.725 311.056 392.306 306.951 389.562 305.028C386.327 302.76 379.776 304 376 304z"/>
<path style="fill:#bda0d3; stroke:none;" d="M399 304L400 305L399 304z"/>
<path style="fill:#c4a9d7; stroke:none;" d="M454.333 304.667C454.278 304.722 454.222 305.778 454.667 305.333C454.722 305.278 454.778 304.222 454.333 304.667z"/>
<path style="fill:#9a6cbb; stroke:none;" d="M247 305L248 306L247 305z"/>
<path style="fill:#cab3dc; stroke:none;" d="M256 305L257 306L256 305z"/>
<path style="fill:#bc9fd3; stroke:none;" d="M358.333 305.667C358.278 305.722 358.222 306.778 358.667 306.333C358.722 306.278 358.778 305.222 358.333 305.667z"/>
<path style="fill:#c3a8d7; stroke:none;" d="M247 306L248 307L247 306z"/>
<path style="fill:#b290cc; stroke:none;" d="M349 306L350 307L349 306z"/>
<path style="fill:#c1a5d6; stroke:none;" d="M391 306L392 307L391 306z"/>
<path style="fill:#bea1d4; stroke:none;" d="M400.333 306.667C400.278 306.722 400.222 307.778 400.667 307.333C400.722 307.278 400.778 306.222 400.333 306.667z"/>
<path style="fill:#bb9cd1; stroke:none;" d="M257 307L258 308L257 307z"/>
<path style="fill:#b797cf; stroke:none;" d="M277 307L278 308L277 307z"/>
<path style="fill:#c5abd8; stroke:none;" d="M332 307L333 308L332 307z"/>
<path style="fill:#400080; stroke:none;" d="M566 307L567 308L566 307z"/>
<path style="fill:#b18ecb; stroke:none;" d="M192 308L192 311C192.696 309.446 192.696 309.554 192 308z"/>
<path style="fill:#996cbb; stroke:none;" d="M248 308L249 309L248 308z"/>
<path style="fill:#c5abd8; stroke:none;" d="M279 308L280 309L279 308z"/>
<path style="fill:#a67ec4; stroke:none;" d="M323 308L324 309L323 308z"/>
<path style="fill:#d1bce0; stroke:none;" d="M348 308L349 309L348 308z"/>
<path style="fill:#9a6dbc; stroke:none;" d="M400 308L400 313C400.83 310.969 400.83 310.031 400 308z"/>
<path style="fill:#b18ecb; stroke:none;" d="M455 308L455 311C455.696 309.446 455.696 309.554 455 308z"/>
<path style="fill:#dac8ff; stroke:none;" d="M53 319C59.3269 317.177 64.9379 313.524 71 311C63.7466 306.683 55.5035 311.657 53 319z"/>
<path style="fill:#9f74bf; stroke:none;" d="M258 309L259 310L258 309z"/>
<path style="fill:#b493cd; stroke:none;" d="M275 309L276 310L275 309z"/>
<path style="fill:#d7c6e4; stroke:none;" d="M333 309L334 310L333 309z"/>
<path style="fill:#9768ba; stroke:none;" d="M249 310L250 311L249 310z"/>
<path style="fill:#cbb5dd; stroke:none;" d="M274 310L275 311L274 310z"/>
<path style="fill:#9d72be; stroke:none;" d="M282 310L283 311L282 310z"/>
<path style="fill:#d8c6e5; stroke:none;" d="M334 310L335 311L334 310z"/>
<path style="fill:#cbb4dc; stroke:none;" d="M357 310L358 311L357 310z"/>
<path style="fill:#c3a8d7; stroke:none;" d="M391 310L392 311L391 310z"/>
<path style="fill:#a176cc; stroke:none;" d="M69 311L70 312L69 311z"/>
<path style="fill:#ab86c7; stroke:none;" d="M273 311L274 312L273 311z"/>
<path style="fill:#ae8ac9; stroke:none;" d="M324 311L325 312L324 311z"/>
<path style="fill:#d3c0e2; stroke:none;" d="M335 311L336 312L335 311z"/>
<path style="fill:#a379ce; stroke:none;" d="M67 312L68 313L67 312z"/>
<path style="fill:#b99ad0; stroke:none;" d="M250 312L251 313L250 312z"/>
<path style="fill:#bb9cd1; stroke:none;" d="M262 312L263 313L262 312z"/>
<path style="fill:#c4a9d7; stroke:none;" d="M271 312L272 313L271 312z"/>
<path style="fill:#aa84c6; stroke:none;" d="M283 312L284 313L283 312z"/>
<path style="fill:#bda0d3; stroke:none;" d="M336 312L337 313L336 312z"/>
<path style="fill:#d7c6e4; stroke:none;" d="M344 312L345 313L344 312z"/>
<path style="fill:#b18ecb; stroke:none;" d="M356 312L357 313L356 312z"/>
<path style="fill:#a57cd0; stroke:none;" d="M65 313L66 314L65 313z"/>
<path style="fill:#c1a5d6; stroke:none;" d="M264 313C266.052 313.874 267.747 313.953 270 314C267.948 313.126 266.253 313.047 264 313z"/>
<path style="fill:#a67ec4; stroke:none;" d="M298 313C303.715 315.398 311.831 314 318 314C312.285 311.602 304.169 313 298 313z"/>
<path style="fill:#bb9cd1; stroke:none;" d="M325 313L326 314L325 313z"/>
<path style="fill:#b08dca; stroke:none;" d="M338 313C339.769 313.779 341.036 313.912 343 314C341.231 313.221 339.964 313.088 338 313z"/>
<path style="fill:#c8afda; stroke:none;" d="M376 313C379.698 314.552 384.017 314 388 314C384.303 312.448 379.983 313 376 313z"/>
<path style="fill:#9a6cbb; stroke:none;" d="M388 313L389 314L388 313z"/>
<path style="fill:#400080; stroke:none;" d="M574 313L575 314L574 313z"/>
<path style="fill:#a77fd1; stroke:none;" d="M63 314L64 315L63 314z"/>
<path style="fill:#b899d0; stroke:none;" d="M191 314L191 317C191.696 315.446 191.696 315.554 191 314z"/>
<path style="fill:#ceb9de; stroke:none;" d="M282 314L283 315L282 314z"/>
<path style="fill:#aa84c6; stroke:none;" d="M318 314L318 321C319.059 318.466 319.059 316.534 318 314z"/>
<path style="fill:#d4c1e2; stroke:none;" d="M355 314L356 315L355 314z"/>
<path style="fill:#b899d0; stroke:none;" d="M456 314L456 317C456.696 315.446 456.696 315.554 456 314z"/>
<path style="fill:#550055; stroke:none;" d="M576 314L577 315L576 314z"/>
<path style="fill:#a982d3; stroke:none;" d="M61 315L62 316L61 315z"/>
<path style="fill:#ba9bd1; stroke:none;" d="M281 315L282 316L281 315z"/>
<path style="fill:#ad88c8; stroke:none;" d="M354 315L355 316L354 315z"/>
<path style="fill:#d7c5e4; stroke:none;" d="M399 315L400 316L399 315z"/>
<path style="fill:#000080; stroke:none;" d="M578 315L579 316L578 315z"/>
<path style="fill:#ab85d5; stroke:none;" d="M59 316L60 317L59 316z"/>
<path style="fill:#000000; stroke:none;" d="M78 333C92.6896 337.018 106.51 344.277 121 349C125.876 337.921 140.572 333.536 146.333 347.001C149.205 353.715 143.389 357.752 143.608 364C143.748 367.974 145.463 372.139 146.349 376C148.034 383.342 149.337 390.941 152 398C154.604 397.176 157.219 396.164 160 396.422C162.968 396.698 165.983 398.859 168.985 397.762C173.28 396.194 176.604 390.375 179.414 387C183.566 382.011 190.674 376.199 192.838 370C194.115 366.342 192.051 361.665 191.435 358C190.196 350.627 190 343.455 190 336C169.913 338.539 150.816 329.605 132 323.333C125.162 321.054 115.272 315.885 108 316.575C103.223 317.028 98.2197 320.643 94 322.753C88.7058 325.401 81.3107 327.93 78 333z"/>
<path style="fill:#ccb5dd; stroke:none;" d="M280 316L281 317L280 316z"/>
<path style="fill:#ab86c7; stroke:none;" d="M353 316L354 317L353 316z"/>
<path style="fill:#c6add9; stroke:none;" d="M398 316L399 317L398 316z"/>
<path style="fill:#ad88d7; stroke:none;" d="M57 317L58 318L57 317z"/>
<path style="fill:#9e73be; stroke:none;" d="M255 317L256 318L255 317z"/>
<path style="fill:#ad89c8; stroke:none;" d="M352 317L353 318L352 317z"/>
<path style="fill:#b392cd; stroke:none;" d="M397 317L398 318L397 317z"/>
<path style="fill:#b08bd9; stroke:none;" d="M55 318L56 319L55 318z"/>
<path style="fill:#550055; stroke:none;" d="M116 318L117 319L116 318z"/>
<path style="fill:#d3bfe1; stroke:none;" d="M256 318L257 319L256 318z"/>
<path style="fill:#b391cc; stroke:none;" d="M277 318L278 319L277 318z"/>
<path style="fill:#ac86c7; stroke:none;" d="M330 318L331 319L330 318z"/>
<path style="fill:#d8c7e5; stroke:none;" d="M351 318L352 319L351 318z"/>
<path style="fill:#c0a4d5; stroke:none;" d="M396 318L397 319L396 318z"/>
<path style="fill:#550055; stroke:none;" d="M52 319L53 320L52 319z"/>
<path style="fill:#ae8ad8; stroke:none;" d="M53 319L54 320L53 319z"/>
<path style="fill:#b594ce; stroke:none;" d="M258 319L259 320L258 319z"/>
<path style="fill:#bfa3d4; stroke:none;" d="M275 319L276 320L275 319z"/>
<path style="fill:#b899d0; stroke:none;" d="M349 319L350 320L349 319z"/>
<path style="fill:#c5abd8; stroke:none;" d="M394 319L395 320L394 319z"/>
<path style="fill:#000080; stroke:none;" d="M50 320L51 321L50 320z"/>
<path style="fill:#9668b9; stroke:none;" d="M190.333 320.667C190.278 320.722 190.222 321.778 190.667 321.333C190.722 321.278 190.778 320.222 190.333 320.667z"/>
<path style="fill:#a67ec4; stroke:none;" d="M261 320L262 321L261 320z"/>
<path style="fill:#ac87c8; stroke:none;" d="M272 320L273 321L272 320z"/>
<path style="fill:#c6add9; stroke:none;" d="M334 320L335 321L334 320z"/>
<path style="fill:#af8cca; stroke:none;" d="M346 320L347 321L346 320z"/>
<path style="fill:#9668b9; stroke:none;" d="M388.667 320.333C388.222 320.778 389.278 320.722 389.333 320.667C389.778 320.222 388.722 320.278 388.667 320.333z"/>
<path style="fill:#bda0d3; stroke:none;" d="M390 320C391.248 320.685 391.548 320.749 393 321C391.752 320.315 391.452 320.251 390 320z"/>
<path style="fill:#9667b9; stroke:none;" d="M457.333 320.667C457.278 320.722 457.222 321.778 457.667 321.333C457.722 321.278 457.778 320.222 457.333 320.667z"/>
<path style="fill:#dac8ff; stroke:none;" d="M592 322C597.067 327.121 605.384 330.245 612 333C611.413 322.284 601.277 317.535 592 322z"/>
<path style="fill:#d5c2e3; stroke:none;" d="M264 321C265.506 321.683 266.315 321.826 268 322C266.494 321.317 265.685 321.174 264 321z"/>
<path style="fill:#dbcbe7; stroke:none;" d="M338 321C339.769 321.779 341.036 321.912 343 322C341.231 321.221 339.964 321.088 338 321z"/>
<path style="fill:#ae8ac9; stroke:none;" d="M190 322L190 325C190.696 323.446 190.696 323.554 190 322M457 322L457 325C457.696 323.446 457.696 323.554 457 322z"/>
<path style="fill:#b998e1; stroke:none;" d="M539.667 322.333C539.222 322.778 540.278 322.722 540.333 322.667C540.778 322.222 539.722 322.278 539.667 322.333z"/>
<path style="fill:#dac8ff; stroke:none;" d="M545 339C549.385 353.909 560.855 366.739 567 381C562.831 382.835 559.985 384.844 558 389C547.553 382.11 535.998 376.654 525 370.691C511.72 363.492 498.685 355.389 485 349C486.478 345.932 486.921 343.398 487 340C482.595 340.537 478.484 342.47 474 342.917C469.84 343.331 466.075 342.339 462 342.083C459.26 341.912 458.528 342.537 458 345C459.416 344.528 459.814 344.186 461 343C461.555 345.829 463.506 348.601 463.681 351.424C464.031 357.102 459.75 364.622 458 370C455.968 369.677 455.018 369.66 453 370C454.458 371.081 455.248 371.436 457 372C454.962 380.807 451.47 389.295 449 398C446.905 396.957 445.301 396.397 443 396C441.393 399.729 439.227 403.122 438 407L453 413C452.999 407.863 451.077 401.933 451.864 397C453.177 388.774 457.775 381.292 459 373L473 375C472.332 378.599 471.608 382.333 472.227 386C472.752 389.109 474.869 391.768 474.657 395C474.114 403.323 468.886 411.85 467 420L459 418C461.132 420.255 463.033 421.072 466 422C465.52 424.36 465.481 425.663 466 428C467.225 425.987 467.645 424.341 468 422C471.056 423.037 475.018 423.272 477.698 425.14C480.756 427.271 482.466 432.152 485 435C481.39 436.799 478.549 438.871 476 442L477 443C480.237 441.156 483.38 438.134 487 437.14C494.626 435.046 500.778 437.841 505 429C508.3 430.985 511.29 432.901 515 434C512.205 440.813 508.923 447.347 505.781 454C502.945 460.003 501.767 464.828 495 467C498.74 474.627 506.208 474.935 514 475C511.456 470.141 508.118 467.789 503 466C507.321 456.882 510.933 443.829 517.637 436.275C519.818 433.818 523.2 432.602 526 431C526.161 433.95 526.486 436.505 528.434 438.892C529.902 440.692 531.85 442.006 534.001 442.852C553.83 450.649 561.043 417.839 540 417.133C536.33 417.01 533.173 418.337 530 420C529.485 410.592 521.386 408.477 516.001 401.985C502.751 386.012 490.623 369.643 477 354C485.953 350.433 492.136 355.536 500 360C511.885 366.747 523.985 373.178 536 379.691C541.708 382.786 548.892 385.431 553.852 389.637C557.34 392.596 556.259 396.186 557.742 399.996C560.305 406.578 568.621 409.584 574.999 406.991C582.135 404.089 585.396 394.953 581.821 388.015C578.976 382.495 572.524 382.335 568.904 377.856C561.125 368.228 555.823 354.862 549.862 344.001C548.769 342.01 547.345 339.785 547.437 337.424C547.627 332.516 551.73 325.698 544.941 323.049C540.099 321.16 533.63 324.865 529.005 326.259C526.696 326.955 523.97 327.404 523.362 330.147C520.63 342.479 538.289 342.759 545 339z"/>
<path style="fill:#b592dd; stroke:none;" d="M544 322L545 323L544 322z"/>
<path style="fill:#bc9de4; stroke:none;" d="M536.667 323.333C536.222 323.778 537.278 323.722 537.333 323.667C537.778 323.222 536.722 323.278 536.667 323.333z"/>
<path style="fill:#b28fdb; stroke:none;" d="M546 323L547 324L546 323z"/>
<path style="fill:#bea0e6; stroke:none;" d="M533.667 324.333C533.222 324.778 534.278 324.722 534.333 324.667C534.778 324.222 533.722 324.278 533.667 324.333z"/>
<path style="fill:#9567c2; stroke:none;" d="M548 324L549 325L548 324z"/>
<path style="fill:#cfbadf; stroke:none;" d="M190 325L190 328C190.696 326.446 190.696 326.554 190 325M457 325L457 328C457.696 326.446 457.696 326.554 457 325z"/>
<path style="fill:#c1a5e9; stroke:none;" d="M530.667 325.333C530.222 325.778 531.278 325.722 531.333 325.667C531.778 325.222 530.722 325.278 530.667 325.333z"/>
<path style="fill:#c4a9eb; stroke:none;" d="M527.667 326.333C527.222 326.778 528.278 326.722 528.333 326.667C528.778 326.222 527.722 326.278 527.667 326.333z"/>
<path style="fill:#9768c3; stroke:none;" d="M600 327L601 328L600 327z"/>
<path style="fill:#000080; stroke:none;" d="M83 328L84 329L83 328z"/>
<path style="fill:#986ac4; stroke:none;" d="M602 328L603 329L602 328z"/>
<path style="fill:#550055; stroke:none;" d="M81 329L82 330L81 329z"/>
<path style="fill:#000000; stroke:none;" d="M485 349C507.894 364.098 533.729 376.229 558 389C560.517 385.51 563.384 383.299 567 381C562.605 366.06 551.012 353.365 545 339C535.384 342.917 524.392 341.501 523 329C514.814 330.209 506.852 333.771 499 336.33C495.831 337.363 491.152 337.819 488.6 340.089C486.438 342.01 485.967 346.355 485 349z"/>
<path style="fill:#9a6dc6; stroke:none;" d="M604 329L605 330L604 329z"/>
<path style="fill:#9c70c8; stroke:none;" d="M606 330L607 331L606 330z"/>
<path style="fill:#550055; stroke:none;" d="M156 331L157 332L156 331z"/>
<path style="fill:#9e73ca; stroke:none;" d="M608 331L609 332L608 331z"/>
<path style="fill:#cc99ff; stroke:none;" d="M74.3333 332.667C74.2777 332.722 74.2223 333.778 74.6667 333.333C74.7221 333.278 74.7778 332.222 74.3333 332.667z"/>
<path style="fill:#dac8ff; stroke:none;" d="M75 332C77.7309 336.002 83.5795 337.296 88 338.95C97.544 342.52 109.112 345.325 117.852 350.557C120.812 352.329 120.723 355.204 122.173 357.999C123.584 360.721 125.887 362.835 128 365C116.547 366.972 106.419 375.994 95 377.454C87.8762 378.364 82.4422 372.197 75.1049 377.148C64.0398 384.615 70.4491 403.412 84 401.63C89.9834 400.844 95.0457 395.995 95.8071 390C96.2241 386.717 94.5372 382.49 97.3573 379.994C100.327 377.365 105.372 376.262 109 374.799C115.987 371.982 122.851 368.48 130 366.104C133.734 364.863 137.416 364.727 141 363C143.227 373.791 148.75 385.979 148.809 397C148.851 404.753 141.902 410.005 147.703 417.895C152.488 424.404 163.225 424.67 168.606 418.786C174.209 412.659 169.031 406.244 171.948 400C177.227 388.698 190.058 381.671 195 370C190.139 372.368 187.19 376.941 183.728 381C178.67 386.932 172.262 392.879 169 400C162.838 395.806 157.935 395.802 151 398C150.501 386.566 143.8 375.372 143.968 364C144.067 357.327 149.58 353.162 146.346 346.004C140.663 333.425 124.457 337.368 121 349C106.337 343.313 90.5111 334.669 75 332z"/>
<path style="fill:#a176cb; stroke:none;" d="M610 332L611 333L610 332z"/>
<path style="fill:#a789d8; stroke:none;" d="M72.6667 333.333C72.2223 333.778 73.2778 333.722 73.3333 333.667C73.7778 333.222 72.7222 333.278 72.6667 333.333z"/>
<path style="fill:#0000ff; stroke:none;" d="M80 333L81 334L80 333z"/>
<path style="fill:#9f73ca; stroke:none;" d="M70 334L71 335L70 334z"/>
<path style="fill:#c3aaed; stroke:none;" d="M71 334L72 335L71 334z"/>
<path style="fill:#ac8cdf; stroke:none;" d="M69 335L70 336L69 335z"/>
<path style="fill:#0000ff; stroke:none;" d="M79 335L80 336L79 335z"/>
<path style="fill:#400080; stroke:none;" d="M498 336L499 337L498 336z"/>
<path style="fill:#000080; stroke:none;" d="M495 337L496 338L495 337z"/>
<path style="fill:#0000ff; stroke:none;" d="M93 338L94 339L93 338z"/>
<path style="fill:#000000; stroke:none;" d="M458 341L459 342L458 341z"/>
<path style="fill:#9262be; stroke:none;" d="M460.667 341.333C460.222 341.778 461.278 341.722 461.333 341.667C461.778 341.222 460.722 341.278 460.667 341.333z"/>
<path style="fill:#b08bd9; stroke:none;" d="M480.667 341.333C480.222 341.778 481.278 341.722 481.333 341.667C481.778 341.222 480.722 341.278 480.667 341.333M464.667 342.333C464.222 342.778 465.278 342.722 465.333 342.667C465.778 342.222 464.722 342.278 464.667 342.333z"/>
<path style="fill:#8650b4; stroke:none;" d="M466 342C468.613 343.098 471.164 342.993 474 343C471.387 341.902 468.836 342.007 466 342z"/>
<path style="fill:#a177cc; stroke:none;" d="M474 342C475.248 342.685 475.548 342.749 477 343C475.752 342.315 475.452 342.251 474 342z"/>
<path style="fill:#0000ff; stroke:none;" d="M106 343L107 344L106 343z"/>
<path style="fill:#000000; stroke:none;" d="M460 343C455.964 350.523 456.329 360.714 454 369L458 370C461.95 361.088 466.01 351.72 460 343z"/>
<path style="fill:#0000ff; stroke:none;" d="M548 346L549 347L548 346M119 348L120 349L119 348z"/>
<path style="fill:#8f5db4; stroke:none;" d="M265 349C267.613 350.098 270.165 349.993 273 350C270.387 348.902 267.836 349.007 265 349z"/>
<path style="fill:#d6c4e4; stroke:none;" d="M273 349L274 350L273 349z"/>
<path style="fill:#d0bbe0; stroke:none;" d="M291 349L291 366C292.883 361.514 292.883 353.486 291 349z"/>
<path style="fill:#8f5db4; stroke:none;" d="M292 349C294.613 350.098 297.165 349.993 300 350C297.387 348.902 294.836 349.007 292 349z"/>
<path style="fill:#aa85c7; stroke:none;" d="M307 349L307 372C309.284 366.557 309.284 354.443 307 349z"/>
<path style="fill:#8f5db4; stroke:none;" d="M308 349C310.613 350.098 313.164 349.993 316 350C313.387 348.902 310.836 349.007 308 349z"/>
<path style="fill:#b493cd; stroke:none;" d="M335 349L335 371C337.219 365.713 337.219 354.287 335 349z"/>
<path style="fill:#8f5db4; stroke:none;" d="M336 349C338.613 350.098 341.164 349.993 344 350C341.387 348.902 338.836 349.007 336 349M352 349C358.928 351.907 369.503 350 377 350C370.072 347.093 359.497 349 352 349z"/>
<path style="fill:#000080; stroke:none;" d="M596 349L597 350L596 349z"/>
<path style="fill:#7030a0; stroke:none;" d="M265 350L265 391L273 391L273 373C277.455 373 286.998 371.205 290.397 374.603C293.671 377.878 292 386.723 292 391L300 391L300 350L292 350L292 366L273 366L273 350L265 350z"/>
<path style="fill:#a983c6; stroke:none;" d="M273 350L273 366C274.812 361.681 274.812 354.319 273 350z"/>
<path style="fill:#e0d2ea; stroke:none;" d="M300 350L300 391C303.306 383.121 301 370.534 301 362C301 358.017 301.552 353.699 300 350z"/>
<path style="fill:#7030a0; stroke:none;" d="M308 350C308 359.704 305.633 373.052 309.92 381.996C315.647 393.946 334.274 394.037 340.992 382.996C346.427 374.062 344 360.005 344 350L336 350C336 357.878 337.914 368.731 334.427 375.999C332.814 379.364 329.175 383.721 325.001 383.338C320.946 382.966 317.775 378.572 316.653 375C314.335 367.62 316 357.692 316 350L308 350M352 350L352 391C360.417 391 372.284 392.943 379.981 388.825C387.895 384.59 385.858 373.764 379 370C380.54 368.091 381.994 366.335 382.853 363.995C384.595 359.249 383.07 352.611 377.956 350.603C370.927 347.843 359.518 350 352 350z"/>
<path style="fill:#8080ff; stroke:none;" d="M464 350L465 351L464 350z"/>
<path style="fill:#550055; stroke:none;" d="M598 350L599 351L598 350z"/>
<path style="fill:#cbb4dc; stroke:none;" d="M381 352L382 353L381 352z"/>
<path style="fill:#000000; stroke:none;" d="M466 352L460 371C464.613 371.377 469.391 373.52 474 373.262C478.13 373.03 481.754 370.385 486 370C482.073 361.189 475.306 354.495 466 352z"/>
<path style="fill:#000080; stroke:none;" d="M612 352L613 353L612 352z"/>
<path style="fill:#0000ff; stroke:none;" d="M463 353L464 354L463 353z"/>
<path style="fill:#8080ff; stroke:none;" d="M488 353L489 354L488 353z"/>
<path style="fill:#000080; stroke:none;" d="M605 353L606 354L605 353z"/>
<path style="fill:#ae8ac9; stroke:none;" d="M382 354L383 355L382 354z"/>
<path style="fill:#8080ff; stroke:none;" d="M553 355L554 356L553 355z"/>
<path style="fill:#a075c0; stroke:none;" d="M361 356C364.432 357.44 368.3 357 372 357C368.568 355.56 364.7 356 361 356z"/>
<path style="fill:#a37ac2; stroke:none;" d="M383.333 356.667C383.278 356.722 383.222 357.778 383.667 357.333C383.722 357.278 383.778 356.222 383.333 356.667z"/>
<path style="fill:#a983c6; stroke:none;" d="M360 357L360 366C361.256 363.006 361.256 359.994 360 357z"/>
<path style="fill:#ffffff; stroke:none;" d="M361 357L361 366C364.397 366 369.725 366.961 372.681 364.972C375.564 363.033 374.891 358.933 371.852 357.603C368.765 356.253 364.302 357 361 357z"/>
<path style="fill:#b391cc; stroke:none;" d="M373 357L374 358L373 357z"/>
<path style="fill:#b797cf; stroke:none;" d="M374 358L375 359L374 358z"/>
<path style="fill:#8080ff; stroke:none;" d="M499 359L500 360L499 359z"/>
<path style="fill:#ae8ac9; stroke:none;" d="M375 360L375 363C375.696 361.446 375.696 361.554 375 360z"/>
<path style="fill:#0000ff; stroke:none;" d="M124 361L125 362L124 361z"/>
<path style="fill:#b28fcb; stroke:none;" d="M383.333 362.667C383.278 362.722 383.222 363.778 383.667 363.333C383.722 363.278 383.778 362.222 383.333 362.667z"/>
<path style="fill:#0000ff; stroke:none;" d="M462 363L463 364L462 363z"/>
<path style="fill:#b392cd; stroke:none;" d="M374 364L375 365L374 364z"/>
<path style="fill:#ebe3f2; stroke:none;" d="M274 365C278.974 367.087 285.638 366 291 366C286.026 363.913 279.362 365 274 365z"/>
<path style="fill:#b28fcb; stroke:none;" d="M373 365L374 366L373 365z"/>
<path style="fill:#986aba; stroke:none;" d="M382 365L383 366L382 365z"/>
<path style="fill:#0000ff; stroke:none;" d="M510 365L511 366L510 365z"/>
<path style="fill:#8080ff; stroke:none;" d="M128 366L129 367L128 366z"/>
<path style="fill:#af8cca; stroke:none;" d="M361 366C364.432 367.44 368.3 367 372 367C368.568 365.56 364.7 366 361 366z"/>
<path style="fill:#8080ff; stroke:none;" d="M461 366L462 367L461 366z"/>
<path style="fill:#d3bfe1; stroke:none;" d="M381 367L382 368L381 367z"/>
<path style="fill:#cbb5dd; stroke:none;" d="M380 368L381 369L380 368z"/>
<path style="fill:#8080ff; stroke:none;" d="M488 368L489 369L488 368z"/>
<path style="fill:#0000ff; stroke:none;" d="M115 369L116 370L115 369z"/>
<path style="fill:#a67fc4; stroke:none;" d="M380 370L381 371L380 370z"/>
<path style="fill:#dccde8; stroke:none;" d="M316 371L316 374C316.696 372.446 316.696 372.554 316 371z"/>
<path style="fill:#9464b8; stroke:none;" d="M335 371L335 374C335.696 372.446 335.696 372.554 335 371z"/>
<path style="fill:#000000; stroke:none;" d="M454 371C450.978 378.893 446.472 387.742 445 396L449 398C451.765 389.503 455.692 380.855 457 372L454 371z"/>
<path style="fill:#0000ff; stroke:none;" d="M478 371L479 372L478 371M491 371L492 372L491 371M521 371L522 372L521 371z"/>
<path style="fill:#c2a7d6; stroke:none;" d="M307 372L307 375C307.696 373.446 307.696 373.554 307 372z"/>
<path style="fill:#a983c6; stroke:none;" d="M273 373L273 391C274.952 386.349 274.952 377.651 273 373z"/>
<path style="fill:#c1a6d6; stroke:none;" d="M274 373C278.974 375.087 285.638 374 291 374C286.026 371.913 279.362 373 274 373z"/>
<path style="fill:#a983c6; stroke:none;" d="M360 373L360 384C361.431 380.59 361.431 376.41 360 373z"/>
<path style="fill:#cab2db; stroke:none;" d="M361 373C364.697 374.552 369.017 374 373 374C369.302 372.448 364.983 373 361 373z"/>
<path style="fill:#a379c1; stroke:none;" d="M373 373L374 374L373 373z"/>
<path style="fill:#000000; stroke:none;" d="M459 373C457.1 381.211 452.048 389.604 451.43 398C451.226 400.764 452.4 403.307 452.792 406C453.476 410.706 453.553 414.31 458.019 417.146C460.682 418.836 463.965 419.372 467 420C469.584 412.059 474.785 402.412 474.948 394C475.011 390.749 472.741 388.148 472.231 385C471.696 381.693 472.586 378.273 473 375C468.302 374.393 463.747 373.204 459 373z"/>
<path style="fill:#8080ff; stroke:none;" d="M192 374L193 375L192 374z"/>
<path style="fill:#d0bbe0; stroke:none;" d="M291 374L291 391C292.883 386.513 292.883 378.486 291 374z"/>
<path style="fill:#a57dc3; stroke:none;" d="M316.333 374.667C316.278 374.722 316.222 375.778 316.667 375.333C316.722 375.278 316.778 374.222 316.333 374.667z"/>
<path style="fill:#ffffff; stroke:none;" d="M361 374L361 383C364.787 383 370.26 383.99 373.771 382.397C376.725 381.056 377.306 376.951 374.562 375.028C371.327 372.76 364.776 374 361 374z"/>
<path style="fill:#bda0d3; stroke:none;" d="M384 374L385 375L384 374z"/>
<path style="fill:#8080ff; stroke:none;" d="M566 374L567 375L566 374z"/>
<path style="fill:#bc9fd3; stroke:none;" d="M343.333 375.667C343.278 375.722 343.222 376.778 343.667 376.333C343.722 376.278 343.778 375.222 343.333 375.667z"/>
<path style="fill:#8080ff; stroke:none;" d="M146 376L147 377L146 376z"/>
<path style="fill:#b290cc; stroke:none;" d="M334 376L335 377L334 376z"/>
<path style="fill:#c1a5d6; stroke:none;" d="M376 376L377 377L376 376z"/>
<path style="fill:#bea1d4; stroke:none;" d="M385.333 376.667C385.278 376.722 385.222 377.778 385.667 377.333C385.722 377.278 385.778 376.222 385.333 376.667z"/>
<path style="fill:#0000ff; stroke:none;" d="M74 377L75 378L74 377z"/>
<path style="fill:#c5abd8; stroke:none;" d="M317 377L318 378L317 377z"/>
<path style="fill:#0000ff; stroke:none;" d="M532 377L533 378L532 377z"/>
<path style="fill:#8080ff; stroke:none;" d="M99 378L100 379L99 378z"/>
<path style="fill:#a67ec4; stroke:none;" d="M308 378L309 379L308 378z"/>
<path style="fill:#d1bce0; stroke:none;" d="M333 378L334 379L333 378z"/>
<path style="fill:#9a6dbc; stroke:none;" d="M385 378L385 383C385.83 380.97 385.83 380.03 385 378z"/>
<path style="fill:#d7c6e4; stroke:none;" d="M318 379L319 380L318 379z"/>
<path style="fill:#8080ff; stroke:none;" d="M184 380L185 381L184 380z"/>
<path style="fill:#0000ff; stroke:none;" d="M187 380L188 381L187 380z"/>
<path style="fill:#d8c6e5; stroke:none;" d="M319 380L320 381L319 380z"/>
<path style="fill:#cbb4dc; stroke:none;" d="M342 380L343 381L342 380z"/>
<path style="fill:#c3a8d7; stroke:none;" d="M376 380L377 381L376 380z"/>
<path style="fill:#0000ff; stroke:none;" d="M145 381L146 382L145 381z"/>
<path style="fill:#ae8ac9; stroke:none;" d="M309 381L310 382L309 381z"/>
<path style="fill:#d3c0e2; stroke:none;" d="M320 381L321 382L320 381z"/>
<path style="fill:#0000ff; stroke:none;" d="M544 381L545 382L544 381z"/>
<path style="fill:#8080ff; stroke:none;" d="M70 382L71 383L70 382z"/>
<path style="fill:#bda0d3; stroke:none;" d="M321 382L322 383L321 382z"/>
<path style="fill:#d7c6e4; stroke:none;" d="M329 382L330 383L329 382z"/>
<path style="fill:#b18ecb; stroke:none;" d="M341 382L342 383L341 382z"/>
<path style="fill:#8080ff; stroke:none;" d="M95 383L96 384L95 383z"/>
<path style="fill:#bb9cd1; stroke:none;" d="M310 383L311 384L310 383z"/>
<path style="fill:#b08dca; stroke:none;" d="M323 383C324.769 383.779 326.036 383.912 328 384C326.231 383.221 324.964 383.088 323 383z"/>
<path style="fill:#c8afda; stroke:none;" d="M361 383C364.697 384.552 369.017 384 373 384C369.302 382.448 364.983 383 361 383z"/>
<path style="fill:#9a6cbb; stroke:none;" d="M373 383L374 384L373 383z"/>
<path style="fill:#0000ff; stroke:none;" d="M543 383L544 384L543 383z"/>
<path style="fill:#d4c1e2; stroke:none;" d="M340 384L341 385L340 384z"/>
<path style="fill:#000000; stroke:none;" d="M498 384C495.781 394.999 486.337 396.96 477 394C474.96 402.817 471.798 411.4 469 420C472.583 421.344 476.298 422.042 480 423C480.789 415.919 487.254 408.877 495 410.41C498.58 411.118 501.664 413.618 505 415C507.947 410.915 511.156 408.439 516 407C512.323 398.749 504.534 390.209 498 384z"/>
<path style="fill:#0000ff; stroke:none;" d="M501 384L502 385L501 384z"/>
<path style="fill:#ad88c8; stroke:none;" d="M339 385L340 386L339 385z"/>
<path style="fill:#d7c5e4; stroke:none;" d="M384 385L385 386L384 385z"/>
<path style="fill:#ab86c7; stroke:none;" d="M338 386L339 387L338 386z"/>
<path style="fill:#c6add9; stroke:none;" d="M383 386L384 387L383 386z"/>
<path style="fill:#ad89c8; stroke:none;" d="M337 387L338 388L337 387z"/>
<path style="fill:#b392cd; stroke:none;" d="M382 387L383 388L382 387z"/>
<path style="fill:#0000ff; stroke:none;" d="M555 387L556 388L555 387z"/>
<path style="fill:#ac86c7; stroke:none;" d="M315 388L316 389L315 388z"/>
<path style="fill:#d8c7e5; stroke:none;" d="M336 388L337 389L336 388z"/>
<path style="fill:#c0a4d5; stroke:none;" d="M381 388L382 389L381 388z"/>
<path style="fill:#b899d0; stroke:none;" d="M334 389L335 390L334 389z"/>
<path style="fill:#c5abd8; stroke:none;" d="M379 389L380 390L379 389z"/>
<path style="fill:#c6add9; stroke:none;" d="M319 390L320 391L319 390z"/>
<path style="fill:#af8cca; stroke:none;" d="M331 390L332 391L331 390z"/>
<path style="fill:#9668b9; stroke:none;" d="M373.667 390.333C373.222 390.778 374.278 390.722 374.333 390.667C374.778 390.222 373.722 390.278 373.667 390.333z"/>
<path style="fill:#bda0d3; stroke:none;" d="M375 390C376.248 390.685 376.548 390.749 378 391C376.752 390.315 376.452 390.251 375 390z"/>
<path style="fill:#8080ff; stroke:none;" d="M503 390L504 391L503 390M69 391L70 392L69 391z"/>
<path style="fill:#0000ff; stroke:none;" d="M201 391L202 392L201 391z"/>
<path style="fill:#dbcbe7; stroke:none;" d="M323 391C324.769 391.779 326.036 391.912 328 392C326.231 391.221 324.964 391.088 323 391z"/>
<path style="fill:#0000ff; stroke:none;" d="M95 392L96 393L95 392z"/>
<path style="fill:#dac8ff; stroke:none;" d="M214 412C210.917 410.718 208.208 411.237 205 412C204.663 405.84 201.891 402.008 196 400C198.573 397.453 201.203 395.141 203 392C198.931 393.142 196.656 396.077 193 397.988C188.49 400.347 183.852 400.302 180.742 405.043C175.629 412.84 180.628 424.682 189.996 425.767C194.535 426.293 196.985 423.077 200.025 420.282C204.476 416.189 208.052 413.382 214 412z"/>
<path style="fill:#8080ff; stroke:none;" d="M475 393L476 394L475 393M201 394L202 395L201 394z"/>
<path style="fill:#000000; stroke:none;" d="M202 394C199.605 395.857 197.79 397.562 196 400C201.137 402.673 204.347 406.138 205 412L212 411C209.812 405.219 206.234 398.523 202 394z"/>
<path style="fill:#0000ff; stroke:none;" d="M478 394L479 395L478 394M491 394L492 395L491 394M446 396L447 397L446 396M449 396L450 397L449 396M474 396L475 397L474 396M151 397L152 398L151 397M168 399L169 400L168 399M171 399L172 400L171 399z"/>
<path style="fill:#8080ff; stroke:none;" d="M518 405L519 406L518 405z"/>
<path style="fill:#0000ff; stroke:none;" d="M473 406L474 407L473 406z"/>
<path style="fill:#7030a0; stroke:none;" d="M437 407C425.977 426.346 407.526 442.605 388 453C390.766 473.522 408.082 490.791 419.71 507C423.093 511.716 428.03 516.472 430.037 522C432.026 527.478 429.007 536.365 428.08 542C425.688 556.553 422.566 571.319 421.17 586C420.363 594.479 425.049 603.456 434.996 600.346C442.109 598.123 442.583 591.262 443.59 585C445.36 573.984 445.578 562.866 448.421 552C449.151 549.21 449.13 544.663 450.944 542.372C452.997 539.779 456.453 541.693 459 542.296C464.343 543.561 470.622 543.354 476 542.384C498.489 538.33 509.986 518.442 510 497C523.049 498.658 535.973 501.298 549 503.13C554.231 503.866 559.683 505.46 565 504.89C575.453 503.771 577.53 490.182 568.981 484.858C564.52 482.081 558.063 482.224 553 481.41C541.392 479.546 529.698 477.079 518 475.908C512.376 475.346 505.135 476.008 500.094 473.012C494.908 469.928 491.645 461.797 488.116 457C474.907 439.048 461.283 410.64 437 407z"/>
<path style="fill:#a177c0; stroke:none;" d="M436 408L437 409L436 408z"/>
<path style="fill:#d4c2e3; stroke:none;" d="M435 409L436 410L435 409z"/>
<path style="fill:#a57cd0; stroke:none;" d="M445 409L446 410L445 409z"/>
<path style="fill:#8080ff; stroke:none;" d="M472 409L473 410L472 409z"/>
<path style="fill:#9e73ca; stroke:none;" d="M447 410L448 411L447 410z"/>
<path style="fill:#a177c0; stroke:none;" d="M434 411L435 412L434 411z"/>
<path style="fill:#a67ed1; stroke:none;" d="M449 411L450 412L449 411z"/>
<path style="fill:#7030a0; stroke:none;" d="M158 477C150.819 475.445 142.213 478.457 135 479.576C124.332 481.23 113.647 482.801 103 484.586C98.7902 485.292 94.0452 485.433 90.0147 486.853C82.0625 489.656 79.6426 499.899 86.2137 505.566C91.2349 509.897 99.1689 507.526 105 506.59C119.311 504.291 133.694 500.819 148 499C148 507.311 147.715 515.288 151.323 523C160.825 543.306 185.978 549.402 206 543C208.377 555.258 209.893 567.673 211.92 580C212.856 585.695 212.991 592.763 215.573 597.985C219.856 606.651 232.992 605.416 235.566 595.999C237.07 590.499 234.983 583.49 234.08 578C231.931 564.931 229.129 552.197 227.83 539C227.425 534.884 225.52 530.106 226.552 526C227.759 521.203 232.208 517.033 234.921 513.015C242.536 501.738 251.098 491.083 259 480C262.917 474.505 269.458 466.66 267.643 459.213C266.834 455.896 262.652 454.622 260 453.138C253.403 449.447 246.884 445.294 241 440.539C234.033 434.91 227.649 428.888 221.921 422C219.543 419.141 216.745 413.791 212.91 412.789C206.513 411.117 199.772 420.147 196.015 424C188.647 431.555 183.807 440.689 177.475 449C170.642 457.97 162.516 466.532 158 477z"/>
<path style="fill:#cab3dc; stroke:none;" d="M214 412L215 413L214 412M433 412L434 413L433 412z"/>
<path style="fill:#000000; stroke:none;" d="M205 414L206 415L205 414z"/>
<path style="fill:#b797cf; stroke:none;" d="M216 415L217 416L216 415M431 415L432 416L431 415z"/>
<path style="fill:#d7c5e4; stroke:none;" d="M217 416L218 417L217 416M430 416L431 417L430 416z"/>
<path style="fill:#9667c3; stroke:none;" d="M458 418L459 419L458 418z"/>
<path style="fill:#a881d2; stroke:none;" d="M200 419L201 420L200 419z"/>
<path style="fill:#a57dc3; stroke:none;" d="M219 419L220 420L219 419M428 419L429 420L428 419z"/>
<path style="fill:#a57bd0; stroke:none;" d="M459 419L460 420L459 419z"/>
<path style="fill:#a278cd; stroke:none;" d="M199 420L200 421L199 420z"/>
<path style="fill:#c3a8d7; stroke:none;" d="M220 420L221 421L220 420M427 420L428 421L427 420z"/>
<path style="fill:#a379ce; stroke:none;" d="M198 421L199 422L198 421z"/>
<path style="fill:#d7c5e4; stroke:none;" d="M221 421L222 422L221 421M426 421L427 422L426 421z"/>
<path style="fill:#000000; stroke:none;" d="M462 421L464 425C465.195 423.777 465.316 423.58 466 422L462 421z"/>
<path style="fill:#a57bcf; stroke:none;" d="M197 422L198 423L197 422z"/>
<path style="fill:#000000; stroke:none;" d="M468 422C466.604 429.999 471.234 434.99 476 441C479.152 439.206 482.051 437.112 485 435C483.101 432.077 481.174 427.284 478.441 425.14C475.759 423.036 471.227 422.835 468 422z"/>
<path style="fill:#b390dc; stroke:none;" d="M196 423L197 424L196 423z"/>
<path style="fill:#986bbb; stroke:none;" d="M224 425L225 426L224 425M423 425L424 426L423 425z"/>
<path style="fill:#000080; stroke:none;" d="M193 426L194 427L193 426z"/>
<path style="fill:#a076c0; stroke:none;" d="M225 426L226 427L225 426M422 426L423 427L422 426z"/>
<path style="fill:#a67ec4; stroke:none;" d="M226 427L227 428L226 427M421 427L422 428L421 427z"/>
<path style="fill:#9a6cc6; stroke:none;" d="M465 427L466 428L465 427z"/>
<path style="fill:#dac8ff; stroke:none;" d="M166 455C163.133 461.988 159.087 468.755 157 476C163.06 470.975 163.683 463.014 168.637 457.224C172.723 452.449 178.792 450.84 180.57 444C182.974 434.752 175.071 427.289 166 428.2C156.326 429.171 150.133 440.432 155.742 448.956C158.141 452.6 161.967 454.03 166 455z"/>
<path style="fill:#ac87c8; stroke:none;" d="M227 428L228 429L227 428M420 428L421 429L420 428z"/>
<path style="fill:#b391cc; stroke:none;" d="M228 429L229 430L228 429M419 429L420 430L419 429z"/>
<path style="fill:#000000; stroke:none;" d="M505 429C502.284 432.764 498.872 436.182 494 436.747C491.313 437.058 488.642 436.091 486 436.944C483.062 437.892 480.476 440.228 478 442C480.387 449.196 486.385 456.008 491.015 461.98C492.94 464.463 495.323 467.072 498.787 465.909C502.051 464.813 503.026 460.786 504.309 458C507.948 450.097 512.583 442.393 515 434L505 429z"/>
<path style="fill:#b695ce; stroke:none;" d="M229 430L230 431L229 430M418 430L419 431L418 430z"/>
<path style="fill:#000080; stroke:none;" d="M468 430L469 431L468 430z"/>
<path style="fill:#af8cca; stroke:none;" d="M230 431L231 432L230 431M417 431L418 432L417 431z"/>
<path style="fill:#a983c6; stroke:none;" d="M231 432L232 433L231 432M416 432L417 433L416 432z"/>
<path style="fill:#a37ac2; stroke:none;" d="M232 433L233 434L232 433M415 433L416 434L415 433z"/>
<path style="fill:#9d72be; stroke:none;" d="M233 434L234 435L233 434M414 434L415 435L414 434z"/>
<path style="fill:#000080; stroke:none;" d="M185 437L186 438L185 437z"/>
<path style="fill:#cfbadf; stroke:none;" d="M238 438L239 439L238 438M409 438L410 439L409 438z"/>
<path style="fill:#b493cd; stroke:none;" d="M239 439L240 440L239 439M408 439L409 440L408 439z"/>
<path style="fill:#9768ba; stroke:none;" d="M240 440L241 441L240 440M407 440L408 441L407 440z"/>
<path style="fill:#c9b1db; stroke:none;" d="M243 442L244 443L243 442M404 442L405 443L404 442z"/>
<path style="fill:#9e72c9; stroke:none;" d="M476 442L477 443L476 442z"/>
<path style="fill:#8080ff; stroke:none;" d="M511 442L512 443L511 442z"/>
<path style="fill:#a37ac2; stroke:none;" d="M244 443L245 444L244 443M403 443L404 444L403 443z"/>
<path style="fill:#b696ce; stroke:none;" d="M247 445L248 446L247 445M400 445L401 446L400 445z"/>
<path style="fill:#0000ff; stroke:none;" d="M512 445L513 446L512 445z"/>
<path style="fill:#bb9cd1; stroke:none;" d="M250 447L251 448L250 447M397 447L398 448L397 447z"/>
<path style="fill:#a77ed1; stroke:none;" d="M177 449L178 450L177 449z"/>
<path style="fill:#b08dca; stroke:none;" d="M253 449L254 450L253 449M394 449L395 450L394 449z"/>
<path style="fill:#cfbadf; stroke:none;" d="M255 450L256 451L255 450M392 450L393 451L392 450z"/>
<path style="fill:#a881c5; stroke:none;" d="M258 452L259 453L258 452M389 452L390 453L389 452z"/>
<path style="fill:#000080; stroke:none;" d="M484 452L485 453L484 452z"/>
<path style="fill:#ba9bd1; stroke:none;" d="M260 453L261 454L260 453z"/>
<path style="fill:#dac8ff; stroke:none;" d="M387 453C379.634 457.813 376.007 458.547 376 468C370.602 466.751 365.553 464.485 360 464C363.212 468.277 370.156 468.762 375 470.475C379.539 472.081 383.252 474.859 388 476C382.463 485.487 379.161 498.354 372.034 506.686C369.945 509.128 366.64 509.374 364.015 511.008C358.92 514.181 357.478 519.274 358.109 525C359.795 540.31 382.391 538.445 384 524C398.294 522.154 412.586 517.619 427 517L427 515C413.092 515.287 397.502 518.674 384 522C383.629 515.216 380.063 511.668 374 509C378.33 501.582 381.911 493.682 385.753 486C388.371 480.765 390.024 476.597 396 475C394.953 470.54 392.189 467.147 390.349 463C388.906 459.75 388.529 456.174 387 453z"/>
<path style="fill:#000000; stroke:none;" d="M164 466C167.981 462.759 170.802 458.626 173 454C167.564 455.949 165.528 460.695 164 466z"/>
<path style="fill:#bda0d3; stroke:none;" d="M262 454L263 455L262 454z"/>
<path style="fill:#c1a5d6; stroke:none;" d="M264 455L265 456L264 455z"/>
<path style="fill:#bfa3d4; stroke:none;" d="M266 456L267 457L266 456z"/>
<path style="fill:#ab85d5; stroke:none;" d="M388.333 456.667C388.278 456.722 388.222 457.778 388.667 457.333C388.722 457.278 388.778 456.222 388.333 456.667z"/>
<path style="fill:#b493ce; stroke:none;" d="M268 457L269 458L268 457z"/>
<path style="fill:#9c6fc7; stroke:none;" d="M268 458L268 461C268.696 459.446 268.696 459.554 268 458z"/>
<path style="fill:#dac8ff; stroke:none;" d="M269 458C268.356 460.44 266.961 463.414 267.708 465.957C270.176 474.367 281.571 472.041 287 469C293.264 483.967 303.582 497.106 310 512C306.155 513.142 301.948 517.424 298 517.188C293.311 516.906 288.016 512.486 284 510.309C272.824 504.25 261.116 495.834 249 492C251.873 497.099 258.049 499.115 263 501.861C273.55 507.713 286.319 512.596 295.852 519.966C301.272 524.157 298.27 531.846 305.015 535.991C310.337 539.261 317.447 538.241 321.772 533.786C325.29 530.163 326.153 523.54 323.821 519.015C320.935 513.414 314.035 512.273 310.619 506.981C302.845 494.94 298.21 478.101 288 468C289.186 466.814 289.528 466.416 290 465C282.756 463.324 276.101 460.03 269 458z"/>
<path style="fill:#8080ff; stroke:none;" d="M503 459L504 460L503 459z"/>
<path style="fill:#000000; stroke:none;" d="M364 464C367.602 466.266 371.806 467.381 376 468L376 460C371.873 460.978 368.012 462.643 364 464z"/>
<path style="fill:#c0a3e8; stroke:none;" d="M389.333 460.667C389.278 460.722 389.222 461.778 389.667 461.333C389.722 461.278 389.778 460.222 389.333 460.667z"/>
<path style="fill:#0000ff; stroke:none;" d="M504 462L505 463L504 462z"/>
<path style="fill:#8080ff; stroke:none;" d="M162 463L163 464L162 463z"/>
<path style="fill:#a982d3; stroke:none;" d="M390 463L391 464L390 463z"/>
<path style="fill:#9f73ca; stroke:none;" d="M391 465L392 466L391 465z"/>
<path style="fill:#0000ff; stroke:none;" d="M163 466L164 467L163 466z"/>
<path style="fill:#dac8ff; stroke:none;" d="M323 470C332.062 473.955 344.609 482.258 352.258 470.981C353.346 469.376 353.627 467.848 354 466C343.659 467.314 333.469 469.971 323 470z"/>
<path style="fill:#000000; stroke:none;" d="M163 467L164 468L163 467M267 467L250 492C261.073 499.302 273.341 505.002 285 511.309C288.818 513.374 294.434 518.118 299 517.76C302.764 517.465 306.424 513.403 310 512C308.117 505.597 304.101 499.809 300.86 494C296.221 485.684 291.802 477.22 287 469C278.871 472.793 274.399 471.716 267 467z"/>
<path style="fill:#a379ce; stroke:none;" d="M392 467L393 468L392 467z"/>
<path style="fill:#000000; stroke:none;" d="M376 468L377 469L376 468z"/>
<path style="fill:#b28fdb; stroke:none;" d="M495 468L496 469L495 468z"/>
<path style="fill:#ebe2ff; stroke:none;" d="M321 469C324.432 470.44 328.3 470 332 470C328.568 468.56 324.7 469 321 469z"/>
<path style="fill:#0000ff; stroke:none;" d="M271 470L272 471L271 470M284 470L285 471L284 470z"/>
<path style="fill:#9f73ca; stroke:none;" d="M497 471L498 472L497 471z"/>
<path style="fill:#b594de; stroke:none;" d="M499.667 473.333C499.222 473.778 500.278 473.722 500.333 473.667C500.778 473.222 499.722 473.278 499.667 473.333z"/>
<path style="fill:#9f74ca; stroke:none;" d="M504 474C505.248 474.685 505.548 474.749 507 475C505.752 474.315 505.452 474.251 504 474z"/>
<path style="fill:#a67fd1; stroke:none;" d="M158 475L159 476L158 475z"/>
<path style="fill:#0000ff; stroke:none;" d="M334 475L335 476L334 475M347 475L348 476L347 475z"/>
<path style="fill:#000000; stroke:none;" d="M374 509C379.257 512.343 383.278 515.517 384 522C397.579 519.442 411.292 516.741 425 515C420.721 503.874 410.625 493.694 403.709 484C401.278 480.592 398.185 474.49 393.101 475.631C389.307 476.483 387.791 480.921 386.247 484C382.103 492.266 377.554 500.464 374 509z"/>
<path style="fill:#9f73cb; stroke:none;" d="M510 475C511.506 475.683 512.315 475.826 514 476C512.494 475.317 511.685 475.174 510 475z"/>
<path style="fill:#000080; stroke:none;" d="M515 475L516 476L515 475z"/>
<path style="fill:#9f74ca; stroke:none;" d="M157 476L158 477L157 476z"/>
<path style="fill:#000080; stroke:none;" d="M260 477L261 478L260 477z"/>
<path style="fill:#0000ff; stroke:none;" d="M291 477L292 478L291 477z"/>
<path style="fill:#550055; stroke:none;" d="M135 479L136 480L135 479z"/>
<path style="fill:#000080; stroke:none;" d="M116 482L117 483L116 482M97 485L98 486L97 485z"/>
<path style="fill:#8080ff; stroke:none;" d="M296 486L297 487L296 486z"/>
<path style="fill:#000080; stroke:none;" d="M571 486L572 487L571 486M252 488L253 489L252 488M409 492L410 493L409 492z"/>
<path style="fill:#9467c2; stroke:none;" d="M248 493L249 494L248 493z"/>
<path style="fill:#0000ff; stroke:none;" d="M253 496L254 497L253 496z"/>
<path style="fill:#9465c1; stroke:none;" d="M144.667 499.333C144.222 499.778 145.278 499.722 145.333 499.667C145.778 499.222 144.722 499.278 144.667 499.333z"/>
<path style="fill:#b18dda; stroke:none;" d="M146 499C146.724 502.039 146.974 504.878 147 508C148.296 504.911 148.641 501.307 146 499z"/>
<path style="fill:#000080; stroke:none;" d="M244 499L245 500L244 499z"/>
<path style="fill:#550055; stroke:none;" d="M526 499L527 500L526 499z"/>
<path style="fill:#9a6cc6; stroke:none;" d="M138.667 500.333C138.222 500.778 139.278 500.722 139.333 500.667C139.778 500.222 138.722 500.278 138.667 500.333z"/>
<path style="fill:#bc9de4; stroke:none;" d="M140.667 500.333C140.222 500.778 141.278 500.722 141.333 500.667C141.778 500.222 140.722 500.278 140.667 500.333z"/>
<path style="fill:#dac8ff; stroke:none;" d="M138 501C138.371 507.784 141.937 511.332 148 514L147 500L138 501z"/>
<path style="fill:#0000ff; stroke:none;" d="M264 502L265 503L264 502z"/>
<path style="fill:#000080; stroke:none;" d="M417 503L418 504L417 503z"/>
<path style="fill:#8080ff; stroke:none;" d="M309 505L310 506L309 505z"/>
<path style="fill:#000080; stroke:none;" d="M105 506L106 507L105 506z"/>
<path style="fill:#dac8ff; stroke:none;" d="M237 508C238.515 513.563 242.812 517.599 246.389 522C253.603 530.877 263.192 540.013 268.748 550C272.415 556.591 265.995 564.366 272.228 570.786C277.822 576.548 287.502 576.17 292.566 569.895C296.36 565.194 295.952 556.52 291.772 552.214C288.693 549.043 284.352 547.646 280.001 548.216C277.149 548.59 274.441 550.413 271.804 548.469C268.616 546.119 266.254 542.032 263.75 539C258.014 532.056 252.486 524.944 246.75 518C243.776 514.399 241.07 510.354 237 508z"/>
<path style="fill:#0000ff; stroke:none;" d="M275 508L276 509L275 508z"/>
<path style="fill:#550055; stroke:none;" d="M236 510L237 511L236 510z"/>
<path style="fill:#8e5bbb; stroke:none;" d="M148.333 512.667C148.278 512.722 148.222 513.778 148.667 513.333C148.722 513.278 148.778 512.222 148.333 512.667z"/>
<path style="fill:#0000ff; stroke:none;" d="M287 512L288 513L287 512M305 513L306 514L305 513M318 513L319 514L318 513M243 514L244 515L243 514M286 514L287 515L286 514z"/>
<path style="fill:#000080; stroke:none;" d="M425 514L426 515L425 514z"/>
<path style="fill:#400080; stroke:none;" d="M149 518L150 519L149 518z"/>
<path style="fill:#0000ff; stroke:none;" d="M298 518L299 519L298 518M403 518L404 519L403 518M415 518L416 519L415 518z"/>
<path style="fill:#8080ff; stroke:none;" d="M245 520L246 521L245 520z"/>
<path style="fill:#550055; stroke:none;" d="M228 521L229 522L228 521z"/>
<path style="fill:#8080ff; stroke:none;" d="M392 522L393 523L392 522z"/>
<path style="fill:#400080; stroke:none;" d="M503 523L504 524L503 523z"/>
<path style="fill:#000080; stroke:none;" d="M501 526L502 527L501 526z"/>
<path style="fill:#400080; stroke:none;" d="M493 534L494 535L493 534z"/>
<path style="fill:#7030a0; stroke:none;" d="M511 534.44C506.066 535.233 501.115 536.915 497 539.8C467.974 560.15 486.057 610.161 522 604.561C528.136 603.605 533.921 601.607 538.985 597.956C553.981 587.144 556.78 563.809 546.211 549C538.316 537.938 524.36 532.293 511 534.44z"/>
<path style="fill:#8080ff; stroke:none;" d="M260 535L261 536L260 535z"/>
<path style="fill:#0000ff; stroke:none;" d="M305 536L306 537L305 536M318 536L319 537L318 536z"/>
<path style="fill:#7030a0; stroke:none;" d="M134 537.464C106.345 542.451 93.7036 579.021 115.09 598.699C124.093 606.983 139.274 608.16 151 605.61C171.507 601.15 179.361 574.358 171.651 557C165.366 542.849 149.162 534.731 134 537.464z"/>
<path style="fill:#000000; stroke:none;" d="M450 542L453 541C451.234 540.599 451.443 540.711 450 542z"/>
<path style="fill:#a77ed1; stroke:none;" d="M453.667 540.333C453.222 540.778 454.278 540.722 454.333 540.667C454.778 540.222 453.722 540.278 453.667 540.333z"/>
<path style="fill:#400080; stroke:none;" d="M169 541L170 542L169 541z"/>
<path style="fill:#a67ed0; stroke:none;" d="M170 541L171 542L170 541z"/>
<path style="fill:#dac8ff; stroke:none;" d="M228 543L232 567C235.406 566.99 238.868 567.129 241.996 565.543C250.349 561.307 251.614 549.261 243.956 543.653C238.921 539.966 233.424 541.023 228 543z"/>
<path style="fill:#0000ff; stroke:none;" d="M262 541L263 542L262 541M451 541L452 542L451 541z"/>
<path style="fill:#d9c8ff; stroke:none;" d="M450 545C452.217 543.837 453.394 542.914 455 541C452.064 541.627 450.987 542.147 450 545z"/>
<path style="fill:#dac8ff; stroke:none;" d="M170 542C172.201 548.456 177.947 552.775 185 551.782C187.965 551.365 190.477 549.426 193.424 549.113C197.967 548.632 203.621 550.867 208 552C203.585 544.994 190.204 546.834 183 545.536C178.547 544.733 174.449 542.766 170 542z"/>
<path style="fill:#0000ff; stroke:none;" d="M229 542L230 543L229 542M242 542L243 543L242 542z"/>
<path style="fill:#000080; stroke:none;" d="M160 543L161 544L160 543z"/>
<path style="fill:#8650b4; stroke:none;" d="M175.667 543.333C175.222 543.778 176.278 543.722 176.333 543.667C176.778 543.222 175.722 543.278 175.667 543.333z"/>
<path style="fill:#000000; stroke:none;" d="M194 546C197.939 547.897 202.649 548.645 207 549L206 543L194 546z"/>
<path style="fill:#9667c2; stroke:none;" d="M178.667 544.333C178.222 544.778 179.278 544.722 179.333 544.667C179.778 544.222 178.722 544.278 178.667 544.333z"/>
<path style="fill:#a57acf; stroke:none;" d="M449.333 544.667C449.278 544.722 449.222 545.778 449.667 545.333C449.722 545.278 449.778 544.222 449.333 544.667z"/>
<path style="fill:#8080ff; stroke:none;" d="M451 544L452 545L451 544z"/>
<path style="fill:#9e73ca; stroke:none;" d="M182 545C183.506 545.683 184.315 545.826 186 546C184.494 545.317 183.685 545.174 182 545z"/>
<path style="fill:#8e5bbb; stroke:none;" d="M186 545C188.052 545.874 189.747 545.953 192 546C189.948 545.126 188.253 545.047 186 545z"/>
<path style="fill:#a67ed1; stroke:none;" d="M192.667 545.333C192.222 545.778 193.278 545.722 193.333 545.667C193.778 545.222 192.722 545.278 192.667 545.333z"/>
<path style="fill:#a982d3; stroke:none;" d="M228 545L228 548C228.696 546.446 228.696 546.554 228 545z"/>
<path style="fill:#0000ff; stroke:none;" d="M198 547L199 548L198 547z"/>
<path style="fill:#400080; stroke:none;" d="M488 548L489 549L488 548z"/>
<path style="fill:#ae8ad8; stroke:none;" d="M229 551L229 554C229.696 552.446 229.696 552.554 229 551z"/>
<path style="fill:#c3a8eb; stroke:none;" d="M448.333 551.667C448.278 551.722 448.222 552.778 448.667 552.333C448.722 552.278 448.778 551.222 448.333 551.667z"/>
<path style="fill:#dac8ff; stroke:none;" d="M449 551C446.931 558.995 445.354 567.746 445 576C455.709 571.287 459.103 558.529 449 551z"/>
<path style="fill:#9c70c8; stroke:none;" d="M447 555L447 558C447.696 556.446 447.696 556.554 447 555z"/>
<path style="fill:#b491dd; stroke:none;" d="M230 557L230 560C230.696 558.446 230.696 558.554 230 557z"/>
<path style="fill:#000080; stroke:none;" d="M106 560L107 561L106 560z"/>
<path style="fill:#9768c3; stroke:none;" d="M446.333 561.667C446.278 561.722 446.222 562.778 446.667 562.333C446.722 562.278 446.778 561.222 446.333 561.667z"/>
<path style="fill:#550055; stroke:none;" d="M173 562L174 563L173 562z"/>
<path style="fill:#b998e1; stroke:none;" d="M446.333 563.667C446.278 563.722 446.222 564.778 446.667 564.333C446.722 564.278 446.778 563.222 446.333 563.667z"/>
<path style="fill:#9f75cb; stroke:none;" d="M231.333 564.667C231.278 564.722 231.222 565.778 231.667 565.333C231.722 565.278 231.778 564.222 231.333 564.667z"/>
<path style="fill:#0000ff; stroke:none;" d="M242 565L243 566L242 565z"/>
<path style="fill:#9260be; stroke:none;" d="M445.333 567.667C445.278 567.722 445.222 568.778 445.667 568.333C445.722 568.278 445.778 567.222 445.333 567.667z"/>
<path style="fill:#000080; stroke:none;" d="M104 569L105 570L104 569z"/>
<path style="fill:#b391dc; stroke:none;" d="M445.333 569.667C445.278 569.722 445.222 570.778 445.667 570.333C445.722 570.278 445.778 569.222 445.333 569.667z"/>
<path style="fill:#000080; stroke:none;" d="M104 576L105 577L104 576z"/>
<path style="fill:#550055; stroke:none;" d="M483 578L484 579L483 578z"/>
<path style="fill:#400080; stroke:none;" d="M549 584L550 585L549 584z"/>
<path style="fill:#550055; stroke:none;" d="M443 585L444 586L443 585M544 592L545 593L544 592z"/>
<path style="fill:#000080; stroke:none;" d="M111 594L112 595L111 594z"/>
<path style="fill:#550055; stroke:none;" d="M214 595L215 596L214 595z"/>
<path style="fill:#000080; stroke:none;" d="M437 599L438 600L437 599M536 599L537 600L536 599z"/>
<path style="fill:#550055; stroke:none;" d="M117 600L118 601L117 600M233 600L234 601L233 600z"/>
<path style="fill:#400080; stroke:none;" d="M232 601L233 602L232 601z"/>
<path style="fill:#000080; stroke:none;" d="M522 604L523 605L522 604z"/>
</svg>
