<!DOCTYPE svg PUBLIC "-//W3C//DTD SVG 20010904//EN" "http://www.w3.org/TR/2001/REC-SVG-20010904/DTD/svg10.dtd">
<svg version="1.0" xmlns="http://www.w3.org/2000/svg" width="650px" height="606px" viewBox="0 0 6500 6060" preserveAspectRatio="xMidYMid meet">
<g id="layer101" fill="#7030a0" stroke="none">
 <path d="M1214 6031 c-90 -52 -143 -129 -164 -239 -31 -156 55 -321 202 -387 184 -83 382 -9 466 175 35 74 36 189 3 271 -27 71 -88 141 -155 179 -49 29 -56 30 -176 30 -120 0 -127 -1 -176 -29z"/>
 <path d="M5102 6040 c-191 -40 -317 -246 -268 -437 19 -75 49 -125 106 -177 68 -62 120 -80 225 -81 82 0 96 3 157 33 201 99 265 354 134 532 -77 105 -221 158 -354 130z"/>
 <path d="M2192 6024 c-12 -8 -27 -25 -34 -37 -6 -12 -28 -123 -47 -247 l-36 -224 -75 -16 c-71 -15 -77 -15 -105 2 -62 37 -146 12 -186 -57 -11 -19 -35 -44 -54 -55 -67 -41 -165 -175 -165 -225 0 -8 -18 -26 -39 -39 -46 -29 -71 -62 -71 -91 0 -21 -1 -21 -202 11 -112 18 -222 33 -245 34 -50 0 -98 -35 -108 -80 -9 -41 11 -95 42 -115 17 -11 138 -35 360 -70 184 -29 336 -55 338 -57 5 -5 95 -198 95 -203 0 -2 -16 -9 -35 -15 -56 -19 -85 -62 -85 -127 0 -49 4 -59 33 -88 81 -81 221 -42 236 65 l6 41 58 -80 c31 -44 57 -82 57 -85 0 -3 -9 -6 -20 -6 -30 0 -75 -26 -99 -56 -29 -37 -29 -121 0 -158 25 -32 69 -56 101 -56 15 0 39 -16 62 -39 l38 -39 -30 -79 c-16 -43 -32 -86 -33 -95 -3 -11 -43 30 -124 127 -76 92 -119 151 -117 162 20 100 6 149 -51 183 -125 76 -265 -74 -178 -190 19 -26 19 -27 -25 -206 -24 -98 -43 -180 -44 -182 0 -1 -9 2 -19 8 -11 5 -30 10 -43 10 -13 0 -107 34 -209 76 l-187 76 6 64 c5 63 5 64 -35 103 -50 50 -97 61 -150 35 -135 -67 -92 -254 58 -254 31 0 55 7 71 20 l25 19 178 -73 c160 -67 175 -75 158 -87 -30 -22 -53 -61 -53 -89 0 -25 -11 -31 -228 -113 -125 -48 -233 -87 -240 -87 -7 0 -71 29 -142 65 -153 77 -194 83 -241 36 -23 -24 -29 -38 -29 -73 0 -60 17 -79 112 -132 54 -29 89 -55 100 -75 25 -44 61 -64 126 -66 42 -1 74 -10 124 -35 67 -34 67 -34 50 -55 -27 -30 -47 -65 -67 -118 l-18 -48 -23 22 c-51 48 -157 31 -192 -31 -16 -27 -16 -28 -56 -13 -53 18 -170 18 -223 0 -173 -59 -275 -224 -244 -392 15 -78 42 -132 93 -184 174 -175 469 -126 580 98 19 38 23 62 23 141 0 52 -3 106 -7 120 -6 21 -2 28 22 42 21 12 30 13 30 5 0 -32 72 -157 116 -200 48 -48 151 -107 186 -107 10 0 18 -3 18 -6 0 -4 -56 -115 -125 -249 -75 -146 -125 -254 -125 -271 0 -47 34 -91 79 -105 34 -10 44 -9 78 7 34 17 46 34 117 174 43 85 112 219 152 297 l75 142 45 -22 c34 -16 49 -31 64 -64 35 -79 130 -108 201 -60 87 59 70 192 -30 235 l-36 15 160 53 c88 29 167 53 177 54 21 0 34 -69 19 -99 -17 -31 -13 -103 8 -137 10 -17 34 -37 52 -44 19 -8 51 -28 71 -47 41 -36 74 -47 117 -41 29 4 31 1 229 -361 l199 -365 -21 -31 -21 -32 -105 86 c-58 47 -207 169 -332 270 -195 157 -226 186 -218 202 6 10 10 41 10 68 0 44 -5 56 -34 89 -32 34 -38 37 -91 37 -53 0 -59 -3 -91 -37 -30 -33 -34 -44 -34 -93 0 -49 4 -60 34 -93 32 -34 39 -37 89 -37 36 0 61 5 73 16 18 16 37 2 359 -260 318 -258 340 -279 346 -314 3 -20 9 -40 13 -44 3 -4 -101 -42 -231 -84 -213 -70 -239 -77 -254 -63 -23 21 -82 29 -118 16 -17 -6 -31 -8 -31 -4 0 4 -14 65 -30 136 -17 72 -30 131 -30 132 0 1 14 7 30 14 17 7 42 26 55 42 33 39 35 122 4 162 -58 74 -160 74 -218 0 -16 -20 -21 -41 -21 -81 0 -49 4 -59 34 -89 19 -19 48 -37 64 -40 20 -4 32 -14 35 -28 63 -276 62 -265 44 -296 -11 -17 -17 -50 -17 -84 0 -50 4 -60 34 -94 32 -34 38 -37 91 -37 53 0 59 3 91 37 31 34 34 44 34 95 0 32 -4 64 -9 72 -7 12 36 29 226 92 l235 77 34 -20 35 -20 -24 -32 c-13 -17 -74 -102 -135 -188 -91 -127 -117 -158 -142 -163 -16 -3 -43 -22 -60 -41 -26 -30 -30 -43 -30 -89 0 -49 4 -60 34 -93 32 -34 39 -37 90 -37 l56 0 87 87 c79 78 100 93 203 141 l115 55 7 -30 c3 -17 20 -45 37 -62 28 -27 38 -31 87 -31 54 0 58 2 94 43 38 42 38 42 82 33 160 -38 325 23 430 159 l27 35 199 -198 198 -197 46 0 c82 0 135 71 105 142 -9 18 -121 138 -256 273 l-241 240 0 80 0 80 20 -33 c54 -88 167 -95 230 -15 17 22 21 39 20 88 -5 135 -22 114 170 210 93 47 172 85 175 85 3 0 5 -8 5 -19 0 -10 9 -30 20 -43 11 -14 47 -112 81 -218 61 -195 63 -209 23 -210 -7 0 -26 -16 -43 -35 -27 -31 -31 -43 -31 -90 0 -49 4 -60 34 -93 32 -34 38 -37 91 -37 53 0 59 3 91 37 30 33 34 44 34 93 0 46 -4 59 -30 89 -17 19 -43 37 -58 41 -25 5 -31 17 -81 178 -29 95 -55 177 -57 182 -2 6 18 10 50 10 37 0 60 5 73 17 19 17 28 14 241 -104 207 -114 222 -125 222 -151 0 -17 12 -41 34 -65 32 -34 38 -37 91 -37 53 0 59 3 91 37 30 33 34 44 34 93 0 49 -4 60 -33 91 -26 29 -42 37 -79 41 l-46 5 -200 368 -201 367 13 36 c17 52 36 29 36 -44 0 -42 5 -63 21 -83 41 -52 100 -68 164 -45 31 12 34 10 196 -121 285 -231 271 -218 254 -243 -23 -33 -20 -118 6 -151 81 -103 239 -54 239 75 0 40 3 49 18 49 38 1 82 56 82 104 0 15 -56 138 -124 275 l-125 248 42 13 c208 62 333 304 269 517 -12 38 -32 85 -45 104 -12 19 -26 39 -30 46 -5 7 37 34 119 78 111 59 130 66 151 56 54 -25 122 -6 162 45 12 15 21 35 21 45 0 9 13 31 30 47 61 62 28 171 -57 187 -33 6 -61 -6 -314 -134 -152 -78 -279 -141 -283 -141 -3 0 -6 17 -6 38 0 21 -6 47 -14 58 -14 19 -6 37 103 234 113 202 120 213 157 226 22 7 51 27 67 44 22 25 27 40 27 84 0 173 -242 185 -260 13 l-5 -51 -365 -199 -365 -199 -33 16 -33 16 48 62 c26 33 70 82 96 107 27 25 54 58 60 72 22 48 221 288 250 300 36 15 77 65 77 94 0 22 0 22 43 7 58 -21 111 -10 154 33 30 30 33 39 33 90 0 51 -3 60 -33 90 -40 40 -92 53 -147 36 -44 -13 -90 -62 -90 -96 l0 -24 -41 17 c-39 16 -45 24 -96 132 -30 63 -63 134 -74 158 l-18 42 33 14 c18 7 44 28 58 46 l26 33 264 42 c145 23 274 49 286 56 12 8 29 29 38 48 32 67 -20 151 -92 151 -19 0 -147 -18 -285 -40 -138 -22 -253 -40 -255 -40 -2 0 -4 15 -4 34 0 226 -170 410 -393 423 -45 3 -98 1 -118 -4 -30 -9 -39 -7 -61 12 -42 36 -44 61 -9 101 27 30 31 42 31 90 0 50 -3 59 -33 87 -18 18 -40 37 -50 42 -13 7 -22 35 -32 100 -16 102 -36 136 -87 149 -72 18 -138 -26 -138 -93 0 -20 23 -183 51 -362 51 -323 51 -327 33 -353 -11 -14 -27 -26 -37 -26 -15 0 -314 50 -389 66 -18 4 -28 12 -28 23 0 25 -36 68 -70 86 -57 30 -127 12 -169 -41 -29 -37 -29 -121 0 -158 23 -30 69 -56 96 -56 14 0 39 -42 100 -164 80 -159 82 -165 60 -171 -12 -4 -33 -14 -47 -24 -35 -23 -211 -77 -238 -73 -12 2 -28 15 -36 30 -30 57 -63 77 -126 77 -50 0 -63 -4 -87 -27 -25 -23 -40 -27 -143 -38 -63 -6 -152 -18 -198 -26 -45 -8 -87 -12 -91 -9 -5 3 47 106 115 229 111 199 128 225 154 231 16 4 43 22 60 41 25 29 30 43 30 84 0 43 -5 56 -34 88 -33 35 -38 37 -96 37 -58 0 -63 -2 -96 -37 -28 -31 -34 -46 -34 -82 l0 -43 -247 -134 c-136 -74 -250 -134 -254 -134 -9 0 -99 122 -99 135 0 5 77 104 171 220 l170 210 29 -15 c57 -30 127 -13 169 41 29 37 29 121 0 158 -81 103 -239 54 -239 -75 0 -26 5 -59 11 -72 10 -23 -1 -40 -156 -231 -92 -113 -171 -206 -175 -206 -5 0 -32 32 -60 72 l-52 71 12 87 12 87 37 -10 c56 -15 105 -2 140 39 26 29 31 43 31 84 0 43 -5 56 -33 86 -28 31 -41 37 -86 42 -34 3 -51 9 -48 16 3 7 13 68 23 137 15 107 16 130 5 158 -24 55 -109 80 -159 45z m-122 -551 c0 -38 -12 -42 -74 -25 l-59 16 49 12 c71 17 84 16 84 -3z m1995 -294 c99 -17 182 -32 184 -34 1 -2 -61 -92 -140 -200 -139 -191 -144 -197 -173 -191 -16 4 -30 7 -32 9 -1 1 -38 75 -83 164 l-81 163 29 15 c38 19 71 62 71 92 0 19 4 22 23 18 12 -3 103 -19 202 -36z m-1000 -49 c42 -1 35 -20 -80 -228 l-116 -210 -31 15 c-40 21 -112 12 -143 -17 l-23 -22 -15 28 c-8 16 -47 73 -86 126 l-71 97 43 25 c23 13 134 74 247 135 l205 110 30 -29 c17 -17 35 -30 40 -30z m697 -485 c-2 -25 -5 -45 -7 -45 -2 0 -29 10 -61 22 l-57 22 64 22 c35 12 64 23 64 23 0 1 -1 -19 -3 -44z m1244 11 c14 -12 142 -312 135 -314 -6 -2 -27 -14 -47 -28 l-36 -25 -20 26 c-31 40 -75 58 -127 52 -39 -4 -51 -1 -89 26 -23 17 -41 36 -38 43 3 7 41 62 86 123 76 103 84 110 108 105 15 -4 28 -7 28 -8z m-3317 -53 c22 -31 39 -58 37 -60 -11 -11 -40 16 -61 58 -41 80 -32 81 24 2z m3136 -285 c-14 -16 -25 -38 -25 -48 0 -14 -11 -22 -37 -29 -85 -21 -81 -21 -88 10 -6 24 1 41 40 94 l46 65 44 -31 44 -32 -24 -29z m-169 -97 c-4 -6 -14 -11 -22 -11 -12 0 -13 4 -3 21 7 14 14 18 21 11 6 -6 7 -15 4 -21z m170 -72 c49 -54 120 -63 178 -24 l37 25 24 -29 c14 -15 39 -34 57 -41 18 -8 35 -15 37 -16 2 -2 -38 -53 -88 -114 -62 -77 -91 -105 -91 -91 0 11 -14 36 -31 55 -35 41 -84 54 -140 39 l-37 -10 -37 123 c-21 68 -38 127 -39 131 -1 4 22 13 49 19 l50 10 6 -28 c4 -16 15 -38 25 -49z m-113 -86 l44 -137 -20 -28 c-16 -22 -19 -37 -14 -86 l5 -60 -64 -12 c-36 -7 -66 -11 -68 -9 -2 2 -22 62 -46 132 -35 108 -40 133 -31 153 6 14 11 44 11 68 0 33 6 48 28 68 22 22 69 43 104 47 4 1 27 -61 51 -136z m-2595 42 c1 -1 -12 -27 -29 -56 -18 -30 -40 -67 -49 -82 l-17 -28 -32 27 -32 27 29 17 c37 23 62 58 62 87 0 20 4 22 33 16 17 -3 33 -7 35 -8z m-302 -266 l122 -145 -14 -59 c-8 -33 -17 -107 -21 -165 l-6 -105 -91 0 c-88 0 -100 -3 -408 -103 l-318 -104 -150 79 c-82 43 -150 80 -150 83 0 3 96 42 212 87 l213 81 20 -36 c23 -41 74 -72 120 -72 37 0 88 30 111 65 25 38 23 109 -4 145 l-22 29 40 168 c22 92 42 173 44 179 3 9 15 9 44 1 32 -8 48 -7 78 5 22 9 43 15 49 14 5 -1 64 -68 131 -147z m2714 15 c34 -100 40 -128 29 -134 -18 -12 -25 -5 -33 31 -3 18 -22 70 -42 116 -35 81 -36 85 -18 98 11 8 20 15 21 15 1 0 20 -57 43 -126z m1124 -39 c17 -10 10 -27 -95 -217 -115 -206 -115 -206 -139 -192 -72 39 -190 -18 -190 -92 0 -13 -3 -24 -7 -24 -3 0 -84 25 -179 56 -170 56 -172 57 -176 88 -3 17 -7 37 -9 45 -3 9 110 76 355 210 l359 196 31 -30 c17 -16 40 -35 50 -40z m-884 -90 c7 -8 30 -18 51 -21 22 -4 39 -9 39 -11 0 -16 -124 -151 -142 -155 -13 -3 -31 -9 -40 -13 -14 -6 -21 8 -45 87 l-29 93 70 17 c39 9 74 16 77 17 4 1 12 -6 19 -14z m-156 -123 l28 -91 -20 -41 c-25 -51 -37 -38 -47 48 -4 35 -13 88 -20 117 -12 54 -8 68 20 61 5 -1 23 -44 39 -94z m-149 -932 c23 -16 64 -38 89 -48 l46 -18 -30 -41 c-20 -27 -40 -43 -61 -47 -17 -3 -46 -21 -65 -40 -30 -30 -34 -40 -34 -89 0 -40 5 -61 21 -81 43 -54 112 -71 170 -40 17 8 32 14 34 12 2 -2 91 -165 199 -362 l196 -360 -29 -30 c-17 -17 -34 -40 -38 -52 -8 -19 -20 -14 -213 93 l-205 113 3 69 c4 67 3 70 -31 108 -33 35 -39 38 -92 38 -53 0 -59 -3 -91 -37 -19 -21 -34 -47 -34 -58 0 -16 -35 -37 -171 -106 -94 -47 -172 -84 -173 -82 -25 54 -66 96 -107 110 -13 4 67 471 81 476 5 2 48 31 95 64 111 80 266 241 335 350 30 48 56 87 58 88 2 0 23 -13 47 -30z m-2331 -129 l-9 -36 -57 3 c-31 2 -66 -2 -78 -8 -18 -10 -24 -9 -31 1 -21 33 -9 54 45 82 30 16 62 37 72 48 17 19 18 18 42 -18 21 -31 23 -41 16 -72z m2535 8 c24 -21 42 -41 40 -43 -2 -2 -19 -8 -37 -14 -27 -9 -38 -8 -67 9 -22 13 -32 25 -27 33 26 41 37 56 42 56 3 -1 25 -19 49 -41z m67 15 c65 -22 73 -31 35 -39 -26 -6 -37 -2 -67 24 -40 36 -36 37 32 15z m-2304 -285 c93 -69 167 -112 267 -156 55 -23 70 -34 57 -39 -21 -8 -5 -15 -259 125 -143 79 -207 120 -207 131 0 28 -40 70 -88 93 -56 27 -67 43 -53 80 l11 29 98 -103 c53 -56 132 -128 174 -160z m2775 65 c37 -70 42 -87 43 -146 0 -60 3 -71 30 -102 17 -18 41 -36 53 -40 17 -4 37 -31 71 -96 26 -50 46 -92 45 -93 -21 -13 -82 -27 -91 -21 -7 5 -106 84 -221 177 -201 163 -207 169 -192 190 9 12 15 43 15 73 0 61 -28 103 -82 124 -18 8 -52 31 -75 51 l-41 38 41 14 c39 13 47 11 201 -38 l161 -52 42 -79z m-435 115 l39 -32 -38 -23 c-21 -13 -44 -26 -51 -30 -18 -9 -43 18 -57 58 -11 35 -10 35 64 57 2 1 21 -13 43 -30z m-3325 -101 c-12 -24 -23 -44 -24 -46 0 -2 -20 6 -43 18 -23 12 -40 23 -38 26 5 4 108 42 120 43 3 1 -3 -18 -15 -41z m1231 -274 c40 -24 42 -26 27 -47 -23 -33 -20 -118 6 -151 27 -34 70 -56 109 -56 l30 0 0 -283 0 -282 -192 -190 c-124 -123 -179 -172 -156 -140 164 232 193 267 233 281 22 7 52 27 68 44 38 42 39 124 2 168 -41 49 -107 64 -165 38 -12 -5 -59 74 -212 355 l-198 362 30 34 c17 18 30 44 30 57 0 23 11 18 173 -71 94 -52 191 -106 215 -119z m1207 29 c-7 -38 -25 -141 -40 -230 l-28 -161 -29 -6 c-17 -3 -45 -21 -64 -40 l-34 -34 1 -96 c1 -53 -1 -100 -5 -103 -3 -3 -6 113 -6 258 -1 227 -3 271 -18 316 l-18 51 90 36 c50 20 107 45 126 56 19 11 36 19 36 20 1 0 -4 -30 -11 -67z m-989 -1173 c-14 -17 -26 -39 -26 -49 0 -13 -27 -30 -92 -60 l-93 -42 105 105 c90 92 106 104 119 92 12 -13 10 -19 -13 -46z"/>
 <path d="M6057 2890 c-109 -28 -208 -114 -246 -213 -28 -76 -28 -177 0 -252 27 -73 104 -156 177 -192 51 -25 68 -28 157 -28 115 0 164 17 235 81 57 52 87 102 106 176 54 208 -105 420 -323 433 -37 2 -85 0 -106 -5z"/>
 <path d="M3170 717 c-98 -28 -193 -117 -229 -213 -29 -75 -29 -193 0 -269 27 -73 104 -156 177 -192 50 -24 69 -28 147 -28 78 0 97 4 147 28 73 36 150 119 177 192 15 39 21 79 21 135 0 104 -26 173 -91 245 -67 72 -135 105 -231 111 -43 2 -92 -1 -118 -9z"/>
 </g>
<g id="layer102" fill="#cab2e2" stroke="none">
 <path d="M4450 5743 c0 -40 33 -233 40 -233 5 0 20 14 34 31 21 24 26 41 26 83 0 60 -21 96 -71 121 -27 14 -29 14 -29 -2z"/>
 <path d="M2754 5731 c-18 -11 -39 -30 -48 -42 -19 -27 -21 -106 -5 -143 11 -23 0 -38 -160 -235 -156 -192 -185 -232 -163 -230 4 0 85 97 180 215 l173 214 29 -15 c57 -30 127 -13 169 41 15 19 21 41 21 79 0 38 -6 60 -21 79 -44 56 -118 72 -175 37z"/>
 <path d="M2315 5658 c-6 -20 -36 -220 -33 -223 52 -43 141 -28 187 31 45 58 21 153 -49 189 -35 18 -99 20 -105 3z"/>
 <path d="M1764 5501 c-33 -20 -64 -57 -64 -77 0 -8 16 -6 51 7 27 11 80 20 117 22 37 1 69 5 72 8 3 4 34 13 69 20 35 8 66 19 68 26 3 8 -20 6 -74 -6 -75 -17 -79 -17 -108 1 -39 23 -92 23 -131 -1z"/>
 <path d="M4490 5451 c0 -12 40 -51 52 -51 14 0 9 16 -9 32 -28 23 -43 30 -43 19z"/>
 <path d="M3054 5361 c-45 -27 -64 -59 -64 -107 l0 -42 -242 -132 c-246 -133 -266 -145 -256 -155 3 -3 117 55 253 130 l248 135 34 -30 c18 -17 37 -30 41 -30 4 0 13 -4 20 -9 11 -6 -13 -57 -103 -220 l-117 -211 -28 15 c-40 21 -89 19 -128 -5 -40 -25 -46 -39 -34 -83 l10 -36 -94 -53 c-52 -29 -121 -72 -152 -96 -71 -53 -222 -201 -269 -264 -19 -27 -38 -48 -42 -48 -31 0 -80 31 -128 81 -43 45 -63 59 -85 59 -38 0 -81 -23 -107 -56 -29 -37 -29 -121 0 -158 24 -31 69 -56 100 -56 12 0 41 -17 64 -39 35 -32 40 -42 32 -57 -6 -11 -23 -53 -37 -95 l-27 -76 -118 141 c-66 78 -118 148 -117 156 17 119 8 155 -51 190 -125 76 -265 -74 -178 -190 19 -26 19 -27 -15 -171 -55 -231 -52 -221 -74 -209 -10 5 -29 10 -42 10 -13 0 -106 34 -208 76 l-185 75 0 70 c0 68 -1 72 -37 104 -67 62 -155 52 -205 -24 -59 -88 8 -201 119 -201 30 0 54 7 70 20 l25 19 176 -72 175 -73 -34 -37 c-22 -23 -34 -47 -34 -65 0 -27 -5 -30 -230 -116 -170 -65 -237 -87 -257 -82 -27 5 -27 5 4 -11 31 -16 33 -15 255 70 122 48 224 83 226 79 20 -58 80 -102 139 -102 35 0 87 31 109 65 25 38 23 109 -4 145 l-21 28 42 181 c34 147 45 180 57 175 39 -16 87 -14 120 3 l35 18 127 -150 126 -151 -16 -65 c-13 -48 -17 -111 -16 -254 0 -212 13 -304 65 -453 31 -87 115 -263 151 -315 15 -21 18 -37 13 -66 l-6 -38 -67 1 c-37 1 -75 -3 -84 -7 -14 -7 -19 -2 -26 25 -9 36 -30 41 -22 5 5 -25 3 -59 -6 -133 -8 -69 13 -109 70 -135 23 -10 51 -28 62 -40 30 -33 72 -51 115 -48 l40 3 198 -364 197 -364 -20 -31 -21 -31 -135 109 c-74 61 -224 182 -332 270 -170 137 -196 162 -188 177 6 10 10 42 10 69 0 44 -5 56 -34 89 -32 34 -38 37 -91 37 -53 0 -59 -3 -91 -37 -30 -33 -34 -44 -34 -93 0 -49 4 -60 34 -93 32 -34 39 -37 89 -37 36 0 61 5 73 16 18 16 37 2 361 -260 308 -249 342 -279 342 -306 1 -16 6 -37 11 -45 7 -12 -32 -28 -228 -92 -212 -69 -238 -75 -253 -62 -23 21 -82 28 -118 16 -17 -6 -31 -9 -31 -6 0 3 -13 64 -30 136 -16 71 -30 131 -30 133 0 1 14 8 30 15 53 22 80 64 80 124 0 59 -21 96 -70 121 -57 30 -127 12 -169 -41 -16 -20 -21 -41 -21 -81 0 -49 4 -59 34 -89 19 -19 48 -37 64 -40 20 -4 32 -14 35 -28 63 -276 62 -265 44 -296 -11 -17 -17 -50 -17 -84 0 -50 4 -60 34 -94 32 -34 38 -37 91 -37 53 0 59 3 91 37 31 34 34 44 34 95 0 32 -4 64 -9 72 -8 12 35 29 226 92 l235 77 34 -20 35 -20 -24 -32 c-13 -17 -74 -102 -135 -188 -91 -127 -117 -158 -142 -163 -16 -3 -43 -22 -60 -41 -26 -30 -30 -43 -30 -89 0 -49 4 -60 34 -93 32 -34 39 -37 90 -37 48 0 60 4 83 28 l28 28 -30 -11 c-71 -27 -140 20 -140 94 0 37 7 50 57 106 31 36 110 139 175 229 104 144 123 165 158 177 22 7 52 27 68 44 38 42 39 124 2 168 -41 49 -107 64 -165 38 -12 -5 -59 74 -213 356 l-197 362 26 27 c14 15 29 40 33 56 l6 29 170 -94 c277 -153 258 -140 240 -165 -23 -33 -20 -118 6 -151 26 -33 70 -56 107 -56 29 0 29 0 35 73 6 87 33 161 55 152 84 -32 398 -47 535 -25 160 25 288 65 408 126 l46 23 -12 -67 c-7 -37 -25 -140 -40 -229 -28 -160 -28 -161 -56 -167 -15 -3 -43 -19 -61 -35 -32 -29 -33 -31 -34 -119 -1 -49 -4 -102 -8 -118 -13 -59 62 -134 134 -134 41 0 92 28 115 64 12 18 16 43 15 88 -5 125 -20 108 170 203 93 47 172 85 175 85 3 0 5 -8 5 -19 0 -10 9 -30 21 -44 11 -15 47 -113 80 -218 61 -194 63 -208 23 -209 -7 0 -26 -16 -43 -35 -27 -31 -31 -43 -31 -90 0 -49 4 -60 34 -93 32 -34 38 -37 91 -37 53 0 59 3 91 37 30 33 34 44 34 93 0 46 -4 59 -30 89 -17 19 -43 37 -58 41 -25 5 -31 17 -81 178 -29 95 -55 177 -57 182 -2 6 18 10 50 10 38 0 60 5 73 18 19 17 27 14 242 -105 206 -114 221 -125 221 -150 0 -18 12 -42 34 -66 32 -34 38 -37 91 -37 53 0 59 3 91 37 30 33 34 44 34 93 0 49 -4 60 -33 91 -26 29 -42 37 -79 41 l-46 5 -200 368 -201 367 13 36 c17 52 36 29 36 -44 0 -42 5 -63 21 -83 41 -52 100 -68 164 -45 32 12 34 10 246 -161 118 -96 216 -175 218 -176 1 -2 -4 -13 -13 -26 -24 -34 -21 -119 5 -152 81 -103 239 -54 239 75 0 36 -4 49 -15 49 -29 0 -66 24 -87 58 -21 35 -32 37 -94 17 -16 -5 -64 29 -237 170 -211 171 -217 177 -202 198 9 12 15 43 15 73 0 61 -28 103 -82 124 -18 8 -52 31 -75 52 l-42 37 39 12 c22 7 40 16 40 21 0 11 -15 10 -60 -3 -37 -11 -40 -10 -87 29 -72 60 -84 60 -121 8 -22 -30 -41 -45 -63 -50 -17 -3 -46 -21 -65 -40 -30 -30 -34 -40 -34 -89 0 -40 5 -61 21 -81 43 -54 112 -71 170 -40 17 8 33 14 35 11 2 -2 92 -165 199 -362 l195 -359 -29 -30 c-17 -17 -34 -41 -38 -52 -8 -20 -19 -15 -213 92 l-205 114 3 69 c4 67 3 70 -31 108 -33 35 -39 38 -92 38 -53 0 -59 -3 -91 -37 -19 -21 -34 -47 -34 -58 0 -16 -35 -37 -172 -106 -95 -47 -174 -82 -175 -78 -16 45 -62 92 -104 106 -13 4 66 471 81 476 37 13 194 140 272 220 115 118 180 214 246 358 90 198 118 311 128 517 5 83 11 127 18 125 6 -1 38 2 71 6 54 6 113 0 184 -20 22 -7 23 -5 19 27 -3 19 -7 40 -9 48 -3 9 112 77 355 210 l359 196 31 -30 c17 -16 40 -35 50 -40 17 -10 9 -27 -95 -217 l-114 -206 -27 14 c-79 41 -195 -24 -186 -103 3 -26 9 -30 101 -58 91 -27 101 -28 125 -14 22 12 28 23 30 58 2 26 -3 52 -12 65 -14 22 -8 34 103 236 113 202 120 213 157 226 22 7 51 27 67 44 22 25 27 40 27 84 0 173 -242 185 -260 13 l-5 -52 -365 -198 -364 -199 -34 16 -33 16 48 62 c26 34 71 84 100 113 29 28 56 60 60 72 15 39 217 282 246 294 36 15 77 65 77 94 0 22 0 22 43 7 58 -21 111 -10 154 33 30 30 33 39 33 90 0 51 -3 60 -33 90 -40 40 -92 53 -147 36 -44 -13 -90 -62 -90 -96 l0 -24 -41 17 c-39 16 -44 24 -110 160 -38 79 -70 150 -71 158 -2 7 12 22 31 31 33 17 80 68 70 76 -2 3 -37 0 -77 -6 -64 -9 -75 -14 -94 -39 -17 -25 -18 -32 -7 -39 8 -5 21 -9 29 -9 18 0 167 -313 151 -318 -6 -2 -27 -14 -47 -28 l-36 -25 -20 26 c-31 40 -75 58 -127 52 -41 -5 -51 -1 -92 29 -49 36 -59 40 -59 25 0 -6 20 -24 45 -42 l44 -32 -24 -29 c-14 -16 -25 -38 -25 -48 0 -14 -11 -22 -37 -29 -85 -21 -81 -21 -88 10 -8 35 -27 28 -23 -8 3 -22 -2 -28 -29 -35 -18 -5 -33 -13 -33 -19 0 -6 8 -8 18 -5 9 2 27 7 39 11 20 5 25 -4 66 -131 l45 -137 -20 -28 c-18 -23 -20 -38 -15 -87 l5 -60 -64 -12 c-36 -7 -66 -11 -68 -9 -2 2 -22 62 -46 132 -35 108 -40 133 -31 153 10 23 16 114 7 114 -2 0 -33 -13 -68 -30 -34 -16 -67 -30 -73 -30 -5 1 -32 31 -58 69 -48 68 -198 223 -272 282 -22 17 -71 49 -108 72 -66 38 -69 42 -63 71 3 17 22 63 41 102 19 40 35 74 35 77 0 3 -13 8 -28 12 -24 5 -38 26 -110 170 l-82 165 29 15 c38 19 71 62 71 92 0 19 4 22 23 18 48 -11 374 -65 390 -65 9 0 17 3 17 8 0 4 -89 23 -197 41 -243 42 -233 40 -233 61 0 24 -36 67 -70 85 -57 30 -127 12 -169 -41 -29 -37 -29 -121 0 -158 23 -30 69 -56 96 -56 14 0 39 -42 100 -164 80 -159 82 -165 60 -171 -12 -4 -33 -14 -47 -24 -39 -25 -212 -78 -238 -71 -12 3 -31 20 -42 38 -49 81 -144 95 -215 32 -15 -13 -51 -21 -135 -30 -63 -6 -152 -18 -198 -26 -45 -8 -87 -12 -91 -9 -5 3 46 105 114 228 113 203 127 224 159 235 109 40 118 184 16 237 -39 20 -89 19 -126 -4z m708 -716 c-2 -25 -5 -45 -7 -45 -2 0 -29 10 -61 22 l-57 22 64 22 c35 12 64 23 64 23 0 1 -1 -19 -3 -44z m1064 -496 c49 -54 120 -63 178 -24 l37 25 24 -29 c14 -15 39 -34 57 -41 18 -8 35 -15 37 -16 2 -2 -38 -53 -88 -114 -61 -75 -91 -105 -91 -92 0 27 -43 77 -80 92 -29 12 -79 10 -111 -4 -13 -6 -22 16 -53 116 -21 68 -39 127 -40 132 0 6 22 15 49 21 l50 11 6 -28 c4 -16 15 -38 25 -49z m-2708 -44 c1 -1 -12 -27 -29 -56 -18 -30 -40 -67 -49 -82 l-17 -28 -32 27 -32 27 29 17 c37 23 62 58 62 87 0 20 4 22 33 16 17 -3 33 -7 35 -8z m2414 -256 c31 -95 37 -123 27 -130 -18 -11 -25 -4 -33 32 -3 18 -23 70 -43 117 -34 81 -35 86 -18 98 10 8 21 12 23 9 3 -2 23 -59 44 -126z m-1793 -26 l-2 -88 89 0 89 0 3 88 3 87 39 0 40 0 0 -210 0 -210 -40 0 -40 0 0 85 0 85 -90 0 -90 0 0 -69 c0 -93 -4 -101 -51 -101 l-39 0 0 210 0 210 46 0 45 0 -2 -87z m595 73 c47 -19 83 -62 95 -112 6 -24 11 -99 11 -168 l0 -126 -40 0 -40 0 0 94 c0 181 -29 251 -106 248 -76 -3 -94 -42 -94 -212 l0 -131 -42 3 -43 3 -3 95 c-6 177 24 266 100 303 41 20 117 22 162 3z m473 -12 c43 -32 56 -66 43 -113 -6 -22 -21 -48 -34 -58 l-23 -19 24 -29 c33 -38 28 -105 -11 -144 -25 -25 -31 -26 -156 -29 l-130 -4 0 212 0 212 129 -4 c113 -3 133 -6 158 -24z m975 -164 c18 -11 43 -20 56 -20 12 0 22 -3 22 -6 0 -17 -123 -152 -142 -156 -13 -3 -31 -9 -40 -13 -14 -6 -22 8 -46 87 l-29 93 71 17 c39 9 72 16 73 17 2 1 17 -8 35 -19z m-168 -117 l29 -90 -20 -42 c-26 -52 -38 -40 -48 47 -4 35 -13 88 -20 117 -12 53 -8 68 20 61 5 -1 22 -43 39 -93z m-1867 -405 c30 -13 93 -67 93 -80 0 -5 -16 -16 -35 -25 -34 -16 -36 -16 -50 4 -19 26 -77 47 -107 38 -94 -29 -124 -154 -56 -231 26 -29 37 -34 74 -34 34 0 51 6 76 29 l33 29 29 -23 c27 -22 28 -23 11 -48 -39 -60 -161 -82 -240 -42 -22 11 -53 40 -70 63 -27 40 -30 51 -30 122 0 71 3 82 30 121 54 76 163 111 242 77z m441 -25 l-3 -38 -102 -3 -103 -3 0 -154 c0 -84 -3 -160 -6 -169 -4 -11 -19 -16 -45 -16 l-39 0 0 210 0 210 151 0 150 0 -3 -37z m296 23 c47 -19 83 -62 95 -112 6 -24 11 -99 11 -168 l0 -126 -40 0 -40 0 0 94 c0 181 -29 251 -106 248 -76 -3 -94 -42 -94 -212 l0 -131 -42 3 -43 3 -3 95 c-6 177 24 266 100 303 41 20 117 22 162 3z m473 -12 c43 -32 56 -66 43 -113 -6 -22 -21 -48 -34 -58 l-23 -19 24 -29 c33 -38 28 -105 -11 -144 -25 -25 -31 -26 -156 -29 l-130 -4 0 212 0 212 129 -4 c113 -3 133 -6 158 -24z m709 -631 c24 -21 44 -40 44 -43 0 -4 -16 -12 -36 -18 -30 -9 -40 -8 -70 10 -21 12 -31 24 -26 32 24 37 37 56 40 56 2 0 23 -17 48 -37z m-2234 -274 c92 -68 167 -112 265 -155 66 -28 82 -44 46 -44 -7 0 -112 55 -233 122 -152 84 -220 127 -220 138 0 28 -40 70 -88 93 -56 27 -67 43 -53 80 l11 29 98 -103 c53 -56 132 -128 174 -160z m2340 179 l40 -31 -28 -15 c-16 -8 -38 -23 -50 -33 -20 -19 -21 -19 -39 1 -10 12 -24 36 -31 55 -11 33 -11 34 25 43 20 6 38 10 40 11 2 1 21 -13 43 -31z"/>
 <path d="M3609 3835 c0 -3 -1 -26 -1 -52 l-1 -48 63 -3 c70 -3 100 13 100 54 0 35 -36 54 -102 54 -32 0 -58 -2 -59 -5z"/>
 <path d="M3610 3615 l0 -45 54 0 c72 0 86 7 86 39 0 40 -18 51 -82 51 l-58 0 0 -45z"/>
 <path d="M3759 3135 c0 -3 -1 -26 -1 -52 l-1 -48 63 -3 c70 -3 100 13 100 54 0 35 -36 54 -102 54 -32 0 -58 -2 -59 -5z"/>
 <path d="M3760 2915 l0 -45 54 0 c72 0 86 7 86 39 0 40 -18 51 -82 51 l-58 0 0 -45z"/>
 <path d="M1443 5120 c-63 -38 -85 -105 -38 -115 81 -17 73 -23 77 56 2 39 0 73 -3 74 -3 2 -19 -4 -36 -15z"/>
 <path d="M1570 4762 c0 -5 20 -53 45 -106 25 -54 45 -99 45 -101 0 -2 -16 -9 -35 -15 -56 -19 -85 -62 -85 -127 0 -49 4 -59 33 -88 86 -86 237 -35 237 79 0 53 -46 122 -91 138 -25 9 -39 28 -81 115 -47 96 -68 128 -68 105z"/>
 <path d="M6011 3278 c-85 -47 -92 -52 -75 -65 41 -30 123 -8 163 43 20 26 29 75 14 73 -5 0 -50 -23 -102 -51z"/>
 <path d="M530 3186 c0 -8 12 -28 26 -45 30 -36 93 -57 132 -43 26 8 22 12 -65 56 -66 32 -93 42 -93 32z"/>
 <path d="M582 2871 c-18 -12 -38 -33 -45 -48 -10 -23 -9 -27 8 -37 26 -14 116 -104 137 -136 15 -24 17 -24 45 -10 27 15 28 18 31 106 3 85 1 91 -22 113 -36 34 -110 39 -154 12z"/>
 <path d="M1524 2421 c-53 -21 -69 -34 -85 -74 -7 -18 -13 -33 -15 -35 -1 -2 -20 6 -43 17 -46 24 -51 25 -51 11 0 -6 20 -20 46 -32 34 -17 49 -32 64 -65 64 -146 285 -83 255 73 -8 43 -62 104 -92 104 -10 0 -23 4 -28 8 -6 5 -28 2 -51 -7z"/>
 <path d="M5250 2191 c0 -50 4 -65 27 -91 24 -29 70 -56 80 -46 6 6 -90 196 -99 196 -5 0 -8 -27 -8 -59z"/>
 <path d="M2896 940 c-14 -18 -26 -40 -26 -49 0 -13 -24 -29 -82 -55 -86 -39 -163 -84 -156 -92 3 -2 56 20 119 50 l114 55 7 -31 c3 -17 20 -45 37 -62 28 -27 38 -31 87 -31 51 0 58 3 90 37 19 21 34 42 34 47 0 5 -24 23 -53 39 -29 16 -74 51 -99 76 l-46 47 -26 -31z"/>
 </g>
<g id="layer103" fill="#f6f2ff" stroke="none">
 <path d="M3110 4694 c-14 -2 -59 -9 -100 -15 -296 -44 -621 -242 -825 -503 -22 -29 -49 -62 -60 -74 -59 -62 -153 -272 -192 -427 -25 -99 -28 -127 -27 -280 0 -93 5 -204 12 -245 12 -73 54 -235 71 -275 38 -87 122 -251 155 -300 56 -84 211 -241 303 -307 143 -103 325 -187 453 -209 30 -6 93 -17 140 -25 197 -34 487 -5 685 68 178 66 344 177 487 326 81 84 208 259 208 285 0 7 14 41 31 77 45 95 46 97 73 195 40 141 50 227 50 410 1 153 -2 181 -27 280 -47 186 -105 306 -227 466 -83 110 -120 151 -200 219 -205 176 -401 274 -628 315 -85 16 -332 28 -382 19z m236 -800 c76 -33 94 -85 94 -264 l0 -140 -42 0 -43 0 0 128 c-1 141 -13 181 -63 205 -35 17 -64 12 -92 -18 -30 -32 -39 -81 -40 -208 l0 -108 -42 3 -43 3 0 145 c0 157 7 181 68 238 42 39 134 47 203 16z m-606 -69 l0 -85 85 0 85 0 0 85 0 85 50 0 50 0 -2 -207 -3 -208 -47 -3 -48 -3 0 85 0 86 -85 0 -85 0 0 -85 0 -85 -45 0 -45 0 0 210 0 210 45 0 45 0 0 -85z m1060 70 c16 -8 36 -25 44 -37 30 -43 13 -125 -30 -149 -21 -11 -21 -12 -3 -30 40 -40 36 -124 -8 -165 -25 -23 -33 -24 -154 -24 l-129 0 0 210 0 210 125 0 c92 0 134 -4 155 -15z m-1032 -707 c45 -21 78 -60 67 -78 -3 -5 -19 -17 -35 -25 -27 -14 -30 -13 -59 15 -40 41 -93 41 -141 2 -31 -27 -34 -34 -38 -95 -4 -63 -3 -68 26 -96 51 -51 112 -53 157 -5 l24 26 36 -22 c40 -25 37 -39 -15 -84 -36 -30 -82 -40 -151 -34 -55 6 -107 40 -146 97 -51 75 -35 197 34 262 77 72 144 82 241 37z m728 6 c76 -33 94 -85 94 -264 l0 -140 -42 0 -43 0 0 128 c-1 141 -13 181 -63 205 -35 17 -64 12 -92 -18 -30 -32 -39 -81 -40 -208 l0 -108 -42 3 -43 3 0 145 c0 157 7 181 68 238 42 39 134 47 203 16z m-308 -21 l-3 -38 -102 -3 -103 -3 0 -169 0 -170 -45 0 -45 0 0 210 0 210 151 0 150 0 -3 -37z m762 22 c16 -8 36 -25 44 -37 30 -43 13 -125 -30 -149 -21 -11 -21 -12 -3 -30 40 -40 36 -124 -8 -165 -25 -23 -33 -24 -154 -24 l-129 0 0 210 0 210 125 0 c92 0 134 -4 155 -15z"/>
 <path d="M3610 3785 l0 -45 70 0 c60 0 71 3 81 21 8 16 8 28 0 45 -10 22 -17 24 -81 24 l-70 0 0 -45z"/>
 <path d="M3610 3615 l0 -45 54 0 c72 0 86 7 86 39 0 40 -18 51 -82 51 l-58 0 0 -45z"/>
 <path d="M3760 3085 l0 -45 70 0 c60 0 71 3 81 21 8 16 8 28 0 45 -10 22 -17 24 -81 24 l-70 0 0 -45z"/>
 <path d="M3760 2915 l0 -45 54 0 c72 0 86 7 86 39 0 40 -18 51 -82 51 l-58 0 0 -45z"/>
 </g>

</svg>