<!DOCTYPE svg PUBLIC "-//W3C//DTD SVG 20010904//EN" "http://www.w3.org/TR/2001/REC-SVG-20010904/DTD/svg10.dtd">
<svg version="1.0" xmlns="http://www.w3.org/2000/svg" width="464px" height="499px" viewBox="0 0 4640 4990" preserveAspectRatio="xMidYMid meet">
<g id="layer101" fill="#e1ccff" stroke="none">
 <path d="M2195 4635 c-290 -54 -546 -193 -747 -404 -191 -200 -308 -438 -354 -721 -28 -168 -6 -461 45 -592 14 -36 6 -35 -26 2 -20 24 -33 30 -64 30 -98 0 -123 -136 -32 -171 33 -12 89 5 103 32 22 40 44 22 90 -73 25 -50 64 -121 88 -157 24 -36 45 -68 47 -71 2 -3 -14 -4 -35 -2 -31 3 -44 -1 -63 -20 -13 -13 -26 -29 -28 -34 -2 -6 -78 -31 -169 -57 l-164 -47 -26 25 c-54 51 -140 16 -140 -57 0 -94 113 -128 156 -47 15 30 20 32 246 95 l96 27 25 -28 24 -28 -54 -126 c-30 -69 -60 -128 -66 -130 -27 -10 -57 -52 -57 -80 0 -76 97 -115 145 -59 l23 27 102 -11 c74 -8 103 -16 109 -27 6 -10 0 -40 -16 -83 -23 -63 -28 -68 -55 -68 -65 0 -100 -80 -58 -133 26 -33 62 -41 105 -23 46 19 61 57 44 108 -10 32 -9 44 10 95 21 56 23 58 61 60 32 2 61 -9 143 -53 56 -31 116 -71 132 -89 38 -42 66 -50 105 -30 l30 16 0 -138 0 -138 -241 -240 c-132 -132 -247 -252 -255 -267 -43 -81 31 -171 121 -146 19 5 99 77 231 209 l202 202 58 -60 c169 -171 427 -171 596 0 l55 56 199 -200 c206 -206 230 -224 288 -208 60 17 91 79 67 137 -7 15 -120 136 -251 267 l-240 240 0 122 0 122 29 -10 c35 -12 86 9 96 40 3 12 51 45 114 80 90 50 116 60 149 58 41 -2 41 -3 65 -67 16 -43 21 -71 16 -82 -28 -53 14 -122 74 -122 66 0 103 63 73 122 -16 32 -34 42 -71 42 -24 0 -26 3 -55 87 -25 71 -17 78 100 91 l95 11 19 -25 c40 -54 112 -51 141 7 24 45 18 69 -25 110 -30 29 -53 68 -90 155 -28 64 -50 117 -50 118 0 1 13 12 30 24 l30 22 147 -41 c127 -36 152 -47 178 -74 17 -18 39 -36 49 -39 31 -11 85 13 101 44 21 41 19 64 -11 99 -36 43 -94 44 -131 2 l-25 -28 -150 44 c-135 40 -154 49 -187 83 l-36 38 41 56 c22 30 61 92 85 136 41 75 46 80 71 76 59 -11 118 35 118 93 0 24 -47 81 -67 81 -10 0 -13 6 -9 16 3 8 16 61 28 117 31 144 30 379 -1 524 -56 268 -174 486 -366 678 -188 189 -412 312 -675 370 -107 24 -399 29 -505 10z m-665 -2351 c0 -13 11 -35 24 -51 19 -22 32 -28 64 -27 l39 1 96 -170 c80 -143 93 -173 84 -189 -7 -10 -15 -18 -18 -18 -4 0 -46 22 -95 49 -87 48 -89 50 -86 84 5 52 -37 97 -89 97 -32 0 -46 -6 -69 -31 l-29 -32 -98 11 c-56 7 -99 16 -102 23 -2 6 -12 20 -22 30 -18 18 -17 22 37 148 38 88 62 132 75 136 22 7 49 54 49 85 0 17 15 7 70 -51 45 -47 70 -80 70 -95z m1865 39 c26 -21 46 -56 85 -149 l52 -122 -22 -30 c-24 -32 -39 -37 -153 -48 -64 -6 -68 -5 -92 20 -51 55 -133 24 -144 -53 -6 -42 -8 -44 -95 -92 -132 -73 -136 -61 -34 125 96 176 102 184 150 196 35 10 52 23 95 71 11 13 117 108 121 109 2 0 18 -12 37 -27z m-1437 -275 c12 -10 19 -188 7 -188 -3 0 -13 4 -23 9 -9 5 -24 12 -33 14 -13 4 -84 121 -148 244 -10 19 1 16 87 -24 53 -25 103 -50 110 -55z m1042 48 c0 -3 -30 -59 -66 -125 -47 -86 -71 -121 -84 -121 -10 0 -26 -3 -35 -6 -14 -6 -15 4 -13 86 l3 93 90 37 c94 39 105 43 105 36z"/>
 <path d="M2290 901 c-93 -29 -177 -102 -219 -191 -22 -47 -26 -69 -26 -145 0 -76 4 -99 26 -146 96 -204 334 -267 515 -137 93 67 153 203 140 318 -14 123 -109 247 -222 289 -56 22 -163 27 -214 12z"/>
 </g>
<g id="layer102" fill="#fefeff" stroke="none">
 <path d="M1830 3659 l0 -210 43 3 42 3 3 83 3 82 89 0 90 0 0 -85 0 -85 40 0 40 0 0 210 0 210 -40 0 -39 0 -3 -87 -3 -88 -87 -3 -88 -3 0 91 0 90 -45 0 -45 0 0 -211z"/>
 <path d="M2354 3856 c-77 -34 -107 -125 -102 -306 l3 -95 42 -3 41 -3 4 140 c3 123 5 143 24 168 17 22 30 29 65 31 37 2 49 -1 69 -23 24 -25 25 -35 30 -168 l5 -142 43 -3 44 -3 -4 148 c-4 172 -17 212 -84 250 -45 26 -131 30 -180 9z"/>
 <path d="M2700 3660 l0 -210 125 0 c122 0 125 1 156 28 44 39 52 106 16 147 l-24 29 23 19 c13 10 29 36 36 58 10 35 9 45 -6 74 -28 51 -74 65 -211 65 l-115 0 0 -210z m220 127 c15 -8 26 -23 28 -39 5 -38 -29 -58 -100 -58 l-58 0 0 55 0 55 53 0 c28 0 63 -6 77 -13z m-2 -179 c7 -7 12 -21 12 -33 0 -34 -20 -45 -82 -45 l-58 0 0 45 0 45 58 0 c32 0 63 -5 70 -12z"/>
 <path d="M1765 3154 c-128 -66 -157 -255 -53 -351 76 -71 229 -67 282 8 21 31 21 34 -13 58 l-29 21 -30 -30 c-63 -63 -162 -26 -183 69 -7 29 -6 54 1 76 28 85 126 116 184 58 26 -26 27 -26 61 -10 19 9 35 20 35 25 0 13 -63 67 -93 80 -39 17 -126 15 -162 -4z"/>
 <path d="M2070 2959 l0 -210 43 3 42 3 3 167 2 167 103 3 102 3 3 38 3 37 -150 0 -151 0 0 -211z"/>
 <path d="M2504 3156 c-77 -34 -107 -125 -102 -306 l3 -95 42 -3 41 -3 4 140 c3 123 5 143 24 168 17 22 30 29 65 31 37 2 49 -1 69 -23 24 -25 25 -35 30 -168 l5 -142 43 -3 44 -3 -4 148 c-4 172 -17 212 -84 250 -45 26 -131 30 -180 9z"/>
 <path d="M2850 2960 l0 -210 125 0 c122 0 125 1 156 28 44 39 52 106 16 147 l-24 29 23 19 c13 10 29 36 36 58 10 35 9 45 -6 74 -28 51 -74 65 -211 65 l-115 0 0 -210z m220 127 c15 -8 26 -23 28 -39 5 -38 -29 -58 -100 -58 l-58 0 0 55 0 55 53 0 c28 0 63 -6 77 -13z m-2 -179 c7 -7 12 -21 12 -33 0 -34 -20 -45 -82 -45 l-58 0 0 45 0 45 58 0 c32 0 63 -5 70 -12z"/>
 <path d="M985 2924 c-43 -47 -26 -123 32 -145 33 -12 89 5 103 32 6 10 19 19 30 19 25 0 18 22 -27 78 -30 37 -39 42 -74 42 -30 0 -46 -6 -64 -26z"/>
 <path d="M3705 2908 c-2 -7 -15 -43 -29 -80 -25 -67 -25 -68 -5 -79 30 -16 86 6 104 41 21 41 19 64 -11 99 -27 32 -52 40 -59 19z"/>
 <path d="M1246 2487 c-13 -13 -25 -28 -27 -33 -2 -6 -78 -31 -169 -57 l-164 -47 -26 25 c-54 51 -140 16 -140 -57 0 -94 113 -128 156 -47 15 30 20 32 246 95 l96 27 25 -28 24 -28 -54 -126 c-30 -69 -60 -128 -66 -130 -27 -10 -57 -52 -57 -80 0 -76 97 -115 145 -59 l23 27 102 -11 c74 -8 103 -16 109 -27 6 -10 0 -40 -16 -83 -23 -63 -28 -68 -55 -68 -65 0 -100 -80 -58 -133 26 -33 62 -41 105 -23 46 19 61 57 44 108 -10 32 -9 44 10 95 21 56 23 58 61 60 32 2 61 -9 143 -53 56 -31 116 -71 132 -89 38 -42 66 -50 105 -30 l30 16 0 -138 0 -138 -241 -240 c-132 -132 -247 -252 -255 -267 -43 -81 31 -171 121 -146 19 5 99 77 231 209 l202 202 58 -60 c169 -171 427 -171 596 0 l55 56 199 -200 c206 -206 230 -224 288 -208 60 17 91 79 67 137 -7 15 -120 136 -251 267 l-240 240 0 122 0 122 29 -10 c35 -12 86 9 96 40 3 12 51 45 114 80 90 50 116 60 149 58 41 -2 41 -3 65 -67 16 -43 21 -71 16 -82 -28 -53 14 -122 74 -122 66 0 103 63 73 122 -16 32 -34 42 -71 42 -24 0 -26 3 -55 87 -25 71 -17 78 100 91 l95 11 19 -25 c40 -54 112 -51 141 7 24 45 18 69 -25 110 -30 29 -53 68 -90 155 -28 64 -50 117 -50 118 0 1 13 12 30 24 l30 22 147 -41 c127 -36 152 -47 178 -74 17 -18 39 -36 49 -39 31 -11 85 13 101 44 21 41 19 64 -11 99 -36 43 -94 44 -131 2 l-25 -28 -151 45 c-135 39 -155 48 -180 78 -16 19 -32 34 -37 34 -13 0 -110 -103 -110 -117 0 -7 13 -22 29 -34 21 -15 44 -56 81 -144 l52 -123 -22 -30 c-24 -32 -39 -37 -153 -48 -64 -6 -68 -5 -92 20 -51 55 -133 24 -144 -53 -6 -42 -8 -44 -95 -92 -134 -74 -137 -62 -26 139 44 80 78 147 75 150 -6 6 -56 -27 -72 -47 -7 -9 -40 -67 -73 -128 -44 -81 -67 -113 -80 -113 -10 0 -25 -3 -34 -6 -14 -5 -16 6 -16 89 l0 96 -27 -9 c-42 -14 -188 -38 -275 -45 -130 -11 -401 26 -510 70 -16 7 -18 -1 -18 -89 0 -53 -2 -96 -5 -96 -3 0 -13 4 -23 9 -9 5 -24 12 -33 15 -10 2 -49 64 -89 136 -60 108 -80 136 -118 162 l-46 31 51 -94 c28 -52 72 -130 96 -173 38 -66 44 -82 34 -97 -7 -11 -15 -19 -18 -19 -4 0 -46 22 -95 49 -87 48 -89 50 -86 84 5 52 -37 97 -89 97 -32 0 -46 -6 -69 -31 l-29 -32 -98 11 c-56 7 -99 16 -102 23 -2 6 -12 20 -22 30 -18 18 -17 22 37 148 38 88 62 132 75 136 21 7 49 54 49 81 0 9 -11 32 -26 51 -31 41 -82 46 -118 10z"/>
 <path d="M1530 2286 c0 -49 68 -99 106 -78 11 6 1 19 -46 55 -57 44 -60 46 -60 23z"/>
 <path d="M3182 2209 c-18 -12 -31 -24 -28 -26 9 -9 46 9 56 28 13 24 13 24 -28 -2z"/>
 <path d="M2290 901 c-93 -29 -177 -102 -219 -191 -22 -47 -26 -69 -26 -145 0 -76 4 -99 26 -146 96 -204 334 -267 515 -137 93 67 153 203 140 318 -14 123 -109 247 -222 289 -56 22 -163 27 -214 12z"/>
 </g>

</svg>